<svg width="32" height="32" viewBox="0 0 32 32" fill="none" xmlns="http://www.w3.org/2000/svg">
<path d="M16 32C24.8366 32 32 24.8366 32 16C32 7.16344 24.8366 0 16 0C7.16344 0 0 7.16344 0 16C0 24.8366 7.16344 32 16 32Z" fill="#D80027"/>
<path d="M8.75625 9.73743L10.1375 13.9874H14.6062L10.9937 16.6187L12.375 20.8687L8.75625 18.2437L5.1375 20.8687L6.525 16.6187L2.90625 13.9874H7.375L8.75625 9.73743Z" fill="#FFDA44"/>
<path d="M18.9685 24.7812L17.9122 23.4812L16.3497 24.0875L17.256 22.6812L16.1997 21.375L17.8185 21.8062L18.731 20.4L18.8185 22.075L20.4434 22.5062L18.8747 23.1062L18.9685 24.7812Z" fill="#FFDA44"/>
<path d="M21.0685 20.9687L21.5685 19.3687L20.1997 18.4L21.8747 18.375L22.3685 16.775L22.9122 18.3625L24.5872 18.3437L23.2435 19.3437L23.781 20.9312L22.4122 19.9625L21.0685 20.9687Z" fill="#FFDA44"/>
<path d="M23.9003 11.7437L23.1628 13.25L24.3628 14.4187L22.7065 14.1812L21.969 15.6812L21.6815 14.0312L20.019 13.7937L21.5065 13.0125L21.219 11.3562L22.419 12.525L23.9003 11.7437Z" fill="#FFDA44"/>
<path d="M19.0124 7.18121L18.8874 8.84996L20.4437 9.48121L18.8124 9.88121L18.6937 11.5562L17.8124 10.1312L16.1812 10.5312L17.2624 9.24996L16.3749 7.83121L17.9312 8.46246L19.0124 7.18121Z" fill="#FFDA44"/>
</svg>
