<svg width="32" height="32" viewBox="0 0 32 32" fill="none" xmlns="http://www.w3.org/2000/svg">
<path d="M31.9293 17.4965H0.0722656V17.4969H31.9293V17.4965Z" fill="#C42126"/>
<path d="M30.2687 8.76208H1.73145V8.76256H30.2687V8.76208Z" fill="#C42126"/>
<path d="M31.402 11.6731H0.596191V11.6736H31.402V11.6731Z" fill="#C42126"/>
<path d="M6.8765 29.1412H25.1232L25.1241 29.1402H6.87549L6.8765 29.1412Z" fill="#C42126"/>
<path d="M15.9995 0C15.6852 0 15.3734 0.0113495 15.064 0.0290493H16.9352C16.6255 0.0113495 16.3138 0 15.9995 0Z" fill="#C42126"/>
<path d="M31.933 14.5848H0.065918V14.5853H31.933V14.5848Z" fill="#C42126"/>
<path d="M20.729 5.85098H28.3691C27.4617 4.74622 26.407 3.76827 25.2385 2.94037H19.5015C19.9762 3.77557 20.3844 4.76109 20.729 5.85098Z" fill="#E7E7E7"/>
<path d="M19.5012 2.9404H25.2383C22.8666 1.25966 20.0191 0.207132 16.9355 0.0290527H16.4429C17.8943 0.211726 18.5609 1.28588 19.5012 2.9404Z" fill="#DC3027"/>
<path d="M31.4035 11.6734C31.119 10.6588 30.7375 9.68538 30.2687 8.76276H21.479C21.6571 9.69727 21.7976 10.6734 21.9016 11.6734H31.4035Z" fill="#E7E7E7"/>
<path d="M20.9846 8.76228H30.2683C29.7393 7.7217 29.1037 6.74524 28.369 5.8512H20.2593C20.5452 6.75639 20.788 7.73285 20.9846 8.76228Z" fill="#DC3027"/>
<path d="M22.2378 17.4958H31.9275C31.9735 17.0035 31.9995 16.5045 31.9995 16.0003C31.9995 15.523 31.9745 15.0519 31.9336 14.585H22.2401C22.2716 15.5531 22.2711 16.5283 22.2378 17.4958Z" fill="#E7E7E7"/>
<path d="M31.9345 14.5845C31.8468 13.5848 31.6667 12.6122 31.4037 11.6739H21.4937C21.5932 12.627 21.6589 13.6022 21.691 14.5845H31.9345Z" fill="#DC3027"/>
<path d="M21.312 23.3182H30.2269C30.7024 22.3966 31.0899 21.4225 31.3804 20.4072H21.743C21.6369 21.4086 21.4929 22.3845 21.312 23.3182Z" fill="#E7E7E7"/>
<path d="M31.3805 20.4069C31.649 19.4689 31.8355 18.4963 31.9281 17.4963H21.9363C21.9021 18.4794 21.8344 19.4543 21.7329 20.4069H31.3805Z" fill="#DC3027"/>
<path d="M25.1244 29.1402C26.3097 28.3156 27.3793 27.3367 28.3012 26.2296H20.7943C20.4434 27.324 20.0268 28.308 19.5435 29.1402H25.1244Z" fill="#E7E7E7"/>
<path d="M20.5117 26.2294H28.3011C29.0444 25.3363 29.6896 24.3599 30.2264 23.3183H21.2461C21.0468 24.3485 20.8015 25.3254 20.5117 26.2294Z" fill="#DC3027"/>
<path d="M15.4203 31.9886C15.3879 31.9876 15.3556 31.9861 15.3232 31.9851C15.3556 31.9861 15.388 31.9876 15.4203 31.9886Z" fill="#DC3027"/>
<path d="M16 32C19.3921 32 22.5351 30.9412 25.1236 29.1412H19.333C18.3052 30.9118 17.6272 32 16 32Z" fill="#DC3027"/>
<path d="M16.0002 32C15.8059 32 15.6129 31.9955 15.4204 31.9886C15.6149 31.9952 15.8081 32 16.0002 32Z" fill="#C42126"/>
<path d="M20.031 2.94037H6.76177C5.59311 3.76827 4.53862 4.74616 3.63086 5.85098H21.2583C20.9137 4.76109 20.5058 3.77557 20.031 2.94037Z" fill="#F3F4F5"/>
<path d="M6.76221 2.9404H20.0315C19.0909 1.28588 17.8947 0.211726 16.4433 0.0290527H15.0647C11.9811 0.207132 9.13365 1.25966 6.76221 2.9404Z" fill="#E73625"/>
<path d="M0.59668 11.6734H22.406C22.3019 10.6732 22.1614 9.69727 21.9833 8.76276H1.7315C1.26258 9.68544 0.88116 10.6588 0.59668 11.6734Z" fill="#F3F4F5"/>
<path d="M3.63095 5.85101C2.89681 6.74506 2.2607 7.72146 1.73193 8.7621H21.9835C21.7872 7.73287 21.5445 6.75648 21.2584 5.85101C21.2584 5.85101 3.63095 5.85101 3.63095 5.85101Z" fill="#E73625"/>
<path d="M0 16.0002C0 16.5045 0.0262795 17.0035 0.0720153 17.4958H22.6015C22.6349 16.5282 22.6354 15.5533 22.6038 14.5852H0.0659352C0.0249959 15.0519 0 15.523 0 16.0002Z" fill="#F3F4F5"/>
<path d="M0.065918 14.5845H22.6035C22.5714 13.602 22.5055 12.6271 22.4062 11.6739H0.59644C0.333442 12.6124 0.153336 13.5848 0.065918 14.5845Z" fill="#E73625"/>
<path d="M22.3981 20.4069H0.619629C0.91019 21.4225 1.29796 22.3964 1.77316 23.318H21.9671C22.148 22.3845 22.2917 21.4086 22.3981 20.4069Z" fill="#F3F4F5"/>
<path d="M0.619947 20.4069H22.3984C22.4998 19.4543 22.5677 18.4791 22.6018 17.4963H0.0722656C0.164953 18.4965 0.35168 19.4689 0.619947 20.4069Z" fill="#E73625"/>
<path d="M6.87558 29.1402H19.9822C20.4655 28.3078 20.8823 27.324 21.233 26.2296H3.69873C4.62061 27.3367 5.68996 28.3156 6.87558 29.1402Z" fill="#F3F4F5"/>
<path d="M1.77393 23.3182C2.3108 24.3598 2.95596 25.3363 3.69922 26.2293H21.2335C21.523 25.3254 21.7683 24.3485 21.9676 23.3182H1.77393Z" fill="#E73625"/>
<path d="M15.3232 31.9851C15.3556 31.9861 15.3879 31.9876 15.4202 31.9886C15.6128 31.9954 15.8058 32 16 32C17.6272 32 18.954 30.9119 19.982 29.1412H6.87695C9.2919 30.8208 12.1906 31.8545 15.3232 31.9851Z" fill="#E73625"/>
<path d="M15.6694 0.00830078C7.47026 0.175098 0.787567 6.50576 0.0683594 14.5584H15.6697V0.00830078H15.6694Z" fill="#283991"/>
<path d="M3.20152 9.06519L3.44526 9.81574H4.235L3.59612 10.2799L3.84013 11.0309L3.20152 10.5666L2.56311 11.0309L2.80665 10.2799L2.16797 9.81574H2.95771L3.20152 9.06519Z" fill="#EFEFEF"/>
<path d="M3.20152 11.7168L3.44526 12.4678H4.235L3.59612 12.9319L3.84013 13.683L3.20152 13.2186L2.56311 13.683L2.80665 12.9319L2.16797 12.4678H2.95771L3.20152 11.7168Z" fill="#EFEFEF"/>
<path d="M5.85364 5.08673L6.09746 5.83756H6.88692L6.24824 6.30194L6.49205 7.05249L5.85364 6.58865L5.21496 7.05249L5.45877 6.30194L4.81982 5.83756H5.60956L5.85364 5.08673Z" fill="#EFEFEF"/>
<path d="M5.85364 7.73883L6.09746 8.48965H6.88692L6.24824 8.9535L6.49205 9.70459L5.85364 9.24075L5.21496 9.70459L5.45877 8.9535L4.81982 8.48965H5.60956L5.85364 7.73883Z" fill="#EFEFEF"/>
<path d="M5.85364 10.391L6.09746 11.1421H6.88692L6.24824 11.6057L6.49205 12.3568L5.85364 11.8924L5.21496 12.3568L5.45877 11.6057L4.81982 11.1421H5.60956L5.85364 10.391Z" fill="#EFEFEF"/>
<path d="M1.18806 12.3567L0.944049 11.6056L1.58273 11.1418H0.793465L0.775765 11.087C0.68909 11.355 0.610792 11.6263 0.538574 11.9007L0.549721 11.8924L1.18806 12.3567Z" fill="#EFEFEF"/>
<path d="M2.56334 8.3788L3.20175 7.91448L3.84043 8.3788L3.59642 7.62771L4.2351 7.16339H3.44536L3.20155 6.41284L2.95774 7.16339H2.66671C2.61266 7.24527 2.56037 7.32762 2.50781 7.41072L2.80695 7.62771L2.56334 8.3788Z" fill="#EFEFEF"/>
<path d="M5.85406 3.93651L6.49247 4.40036L6.24866 3.6498L6.88707 3.18549H6.43107C6.04376 3.47503 5.67011 3.78147 5.31111 4.1048L5.21484 4.40036L5.85406 3.93651Z" fill="#EFEFEF"/>
<path d="M7.86719 3.07455L8.50586 2.61023L9.14427 3.07455L8.90046 2.32345L9.53887 1.85961H8.74941L8.7163 1.75854C8.44878 1.89521 8.18403 2.03742 7.92529 2.18874L8.11073 2.32338L7.86719 3.07455Z" fill="#EFEFEF"/>
<path d="M8.50592 3.76093L8.74973 4.51128H9.5392L8.90052 4.97559L9.14433 5.72669L8.50592 5.26231L7.86724 5.72669L8.11105 4.97559L7.47217 4.51128H8.26184L8.50592 3.76093Z" fill="#EFEFEF"/>
<path d="M8.50592 6.41302L8.74973 7.16338H9.5392L8.90052 7.62769L9.14433 8.37879L8.50592 7.9144L7.86724 8.37879L8.11105 7.62769L7.47217 7.16338H8.26184L8.50592 6.41302Z" fill="#EFEFEF"/>
<path d="M8.50592 9.06519L8.74973 9.81574H9.5392L8.90052 10.2799L9.14433 11.0309L8.50592 10.5666L7.86724 11.0309L8.11105 10.2799L7.47217 9.81574H8.26184L8.50592 9.06519Z" fill="#EFEFEF"/>
<path d="M8.50592 11.7168L8.74973 12.4678H9.5392L8.90052 12.9319L9.14433 13.683L8.50592 13.2186L7.86724 13.683L8.11105 12.9319L7.47217 12.4678H8.26184L8.50592 11.7168Z" fill="#EFEFEF"/>
<path d="M11.1578 2.43457L11.4016 3.18539H12.1911L11.5526 3.64978L11.7962 4.40033L11.1578 3.93649L10.5189 4.40033L10.7629 3.64978L10.124 3.18539H10.9137L11.1578 2.43457Z" fill="#EFEFEF"/>
<path d="M11.1578 5.08673L11.4016 5.83756H12.1911L11.5526 6.30194L11.7962 7.05249L11.1578 6.58865L10.5189 7.05249L10.7629 6.30194L10.124 5.83756H10.9137L11.1578 5.08673Z" fill="#EFEFEF"/>
<path d="M11.1578 7.73883L11.4016 8.48965H12.1911L11.5526 8.9535L11.7962 9.70459L11.1578 9.24075L10.5189 9.70459L10.7629 8.9535L10.124 8.48965H10.9137L11.1578 7.73883Z" fill="#EFEFEF"/>
<path d="M11.1578 10.391L11.4016 11.1421H12.1911L11.5526 11.6057L11.7962 12.3568L11.1578 11.8924L10.5189 12.3568L10.7629 11.6057L10.124 11.1421H10.9137L11.1578 10.391Z" fill="#EFEFEF"/>
<path d="M13.8101 1.10876L14.0539 1.85959H14.8434L14.2047 2.32343L14.4485 3.07452L13.8101 2.61014L13.1712 3.07452L13.4152 2.32343L12.7764 1.85959H13.5658L13.8101 1.10876Z" fill="#EFEFEF"/>
<path d="M13.8101 3.76093L14.0539 4.51128H14.8434L14.2047 4.97559L14.4485 5.72669L13.8101 5.26231L13.1712 5.72669L13.4152 4.97559L12.7764 4.51128H13.5658L13.8101 3.76093Z" fill="#EFEFEF"/>
<path d="M13.8101 6.41302L14.0539 7.16338H14.8434L14.2047 7.62769L14.4485 8.37879L13.8101 7.9144L13.1712 8.37879L13.4152 7.62769L12.7764 7.16338H13.5658L13.8101 6.41302Z" fill="#EFEFEF"/>
<path d="M13.8101 9.06519L14.0539 9.81574H14.8434L14.2047 10.2799L14.4485 11.0309L13.8101 10.5666L13.1712 11.0309L13.4152 10.2799L12.7764 9.81574H13.5658L13.8101 9.06519Z" fill="#EFEFEF"/>
<path d="M13.8101 11.7168L14.0539 12.4678H14.8434L14.2047 12.9319L14.4485 13.683L13.8101 13.2186L13.1712 13.683L13.4152 12.9319L12.7764 12.4678H13.5658L13.8101 11.7168Z" fill="#EFEFEF"/>
</svg>
