<svg width="20" height="20" viewBox="0 0 20 20" fill="none" xmlns="http://www.w3.org/2000/svg">
<path d="M9.40492 5.4336C9.08692 6.42419 7.5 11.4205 7.5 12.4996C7.5 13.8784 8.62122 14.9996 9.99999 14.9996C11.3788 14.9996 12.5 13.8784 12.5 12.4996C12.5 11.4205 10.9131 6.42419 10.5951 5.4336C10.4291 4.91601 9.57091 4.91601 9.40492 5.4336ZM9.99999 13.7496C9.3109 13.7496 8.74998 13.1887 8.74998 12.4996C8.74998 11.9888 9.38231 9.74754 9.99999 7.72058C10.6177 9.74754 11.25 11.9888 11.25 12.4996C11.25 13.1887 10.6891 13.7496 9.99999 13.7496Z" fill="#6C7A8B"/>
<path d="M10 0C4.48609 0 0 4.48609 0 10C0 15.5139 4.48609 20 10 20C15.5139 20 20 15.5139 20 10C20 4.48609 15.5139 0 10 0ZM6.09185 17.8175C8.52699 16.6145 11.4731 16.6145 13.9082 17.8175C12.7302 18.4089 11.4055 18.7501 10 18.7501C8.59445 18.7501 7.2699 18.4089 6.09185 17.8175ZM15.1308 17.0726C12.0172 15.2126 7.9828 15.2126 4.86923 17.0726C2.68082 15.4806 1.24998 12.9073 1.24998 10H3.74997V8.75002H1.34977C1.61603 6.90135 2.4571 5.23898 3.69245 3.9513L5.13853 5.39738L6.02232 4.5136L4.62149 3.11277C5.95257 2.07098 7.58939 1.40881 9.37499 1.28173V3.12507H10.625V1.28169C12.4106 1.40881 14.0474 2.07095 15.3785 3.11273L13.9777 4.51356L14.8615 5.39735L16.3075 3.95126C17.5429 5.23895 18.384 6.90131 18.6502 8.74999H16.25V10H18.75C18.75 12.9073 17.3192 15.4806 15.1308 17.0726Z" fill="#6C7A8B"/>
</svg>
