<svg width="20" height="20" viewBox="0 0 20 20" fill="none" xmlns="http://www.w3.org/2000/svg">
<path d="M18.2422 5.8979H14.1407V2.9682C14.1407 1.99894 13.3521 1.21039 12.3828 1.21039H1.75782C0.788556 1.21039 0 1.99894 0 2.9682V9.99947C0 10.9687 0.788556 11.7573 1.75782 11.7573H2.34375V13.5151C2.34375 13.9844 2.8679 14.2605 3.25469 14.0026L5.85939 12.2662V14.687C5.85939 15.6562 6.64794 16.4448 7.6172 16.4448H13.3773L16.7453 18.6901C17.1327 18.9484 17.6562 18.672 17.6562 18.2026V16.4448H18.2422C19.2114 16.4448 20 15.6562 20 14.687V7.65571C20 6.68645 19.2115 5.8979 18.2422 5.8979ZM6.11868 10.6849C6.11814 10.6853 6.11755 10.6856 6.117 10.686L3.51563 12.4203V11.1713C3.51563 10.8478 3.25329 10.5854 2.92969 10.5854H1.75782C1.43473 10.5854 1.17188 10.3226 1.17188 9.99947V2.9682C1.17188 2.64512 1.43473 2.38227 1.75782 2.38227H12.3828C12.7059 2.38227 12.9688 2.64512 12.9688 2.9682V9.99947C12.9688 10.3226 12.7059 10.5854 12.3828 10.5854H6.44533C6.33193 10.5854 6.21474 10.6205 6.11868 10.6849ZM18.8282 14.687C18.8282 15.0101 18.5653 15.2729 18.2422 15.2729H17.0703C16.7468 15.2729 16.4844 15.5353 16.4844 15.8589V17.1078L13.8797 15.3713C13.7835 15.3071 13.6704 15.2729 13.5547 15.2729H7.6172C7.29412 15.2729 7.03126 15.0101 7.03126 14.687V11.7573H12.3828C13.3521 11.7573 14.1407 10.9687 14.1407 9.99947V7.06978H18.2422C18.5653 7.06978 18.8282 7.33263 18.8282 7.65571V14.687Z" fill="#6C7A8B"/>
<path d="M7.6172 7.06976H2.92969C2.60609 7.06976 2.34375 7.33211 2.34375 7.6557C2.34375 7.9793 2.60609 8.24164 2.92969 8.24164H7.6172C7.94079 8.24164 8.20314 7.9793 8.20314 7.6557C8.20314 7.33211 7.94079 7.06976 7.6172 7.06976Z" fill="#6C7A8B"/>
<path d="M11.211 4.72601H2.92969C2.60609 4.72601 2.34375 4.98836 2.34375 5.31195C2.34375 5.63555 2.60609 5.89789 2.92969 5.89789H11.211C11.5345 5.89789 11.7969 5.63555 11.7969 5.31195C11.7969 4.98836 11.5345 4.72601 11.211 4.72601Z" fill="#6C7A8B"/>
</svg>
