<svg width="20" height="20" viewBox="0 0 20 20" fill="none" xmlns="http://www.w3.org/2000/svg">
<path d="M8.125 0C7.78 0 7.5 0.28 7.5 0.625V2.49875C3.25125 3.10625 0 6.815 0 11.2C0 16.0525 3.92625 20 8.75 20C13.0837 20 16.77 16.7488 17.3988 12.5H19.375C19.72 12.5 20 12.22 20 11.875C20 5.3275 14.6725 0 8.125 0ZM8.75 18.75C4.61375 18.75 1.25 15.3638 1.25 11.2C1.25 7.49875 3.94625 4.3525 7.5 3.75625V11.875C7.5 12.22 7.78 12.5 8.125 12.5H16.1413C15.525 16.055 12.4025 18.75 8.75 18.75ZM8.75 11.25V1.26875C14.1112 1.58125 18.4187 5.8875 18.7312 11.25H8.75Z" fill="#6C7A8B"/>
</svg>
