<svg width="20" height="20" viewBox="0 0 20 20" fill="none" xmlns="http://www.w3.org/2000/svg">
<path d="M20 4.3363C20 1.94563 18.0551 0.000671387 15.6644 0.000671387C13.4455 0.000671387 11.6109 1.67626 11.3587 3.82852H6.09451C5.81807 2.5752 4.83783 1.57169 3.60104 1.37055C2.69529 1.22325 1.77959 1.47563 1.08897 2.06305C0.397833 2.65083 0.00146557 3.50786 0.00146557 4.41442V16.8131C-0.0146672 17.3384 0.102364 17.8777 0.353887 18.3958C0.826856 19.3698 1.89975 19.9992 3.08721 19.9992H16.9143C18.6158 19.9992 20 18.615 20 16.9135V4.41442C20 4.40841 19.9993 4.40259 19.9991 4.39665C19.9994 4.37653 20 4.35645 20 4.3363ZM6.17291 5.00032H11.3799C11.4465 5.43157 11.5775 5.84684 11.7658 6.2338C11.714 6.26075 11.6654 6.29587 11.6219 6.3393L6.17291 11.7884V5.00032ZM1.17322 4.41442C1.17326 3.85212 1.4192 3.3204 1.84811 2.95567C2.28287 2.58591 2.83873 2.43368 3.41291 2.52712C4.3183 2.67442 5.00107 3.54325 5.00107 4.54813V14.4947C4.47471 14.0773 3.80951 13.8278 3.08717 13.8278C2.37799 13.8278 1.70924 14.0658 1.17326 14.4906V4.41442H1.17322ZM3.08721 18.8274C2.34541 18.8274 1.68635 18.457 1.40799 17.8839C1.07854 17.2054 1.09877 16.4822 1.46342 15.8997C1.81631 15.336 2.4233 14.9995 3.08717 14.9995C4.14252 14.9995 5.00107 15.8581 5.00107 16.9134C5.00107 17.237 5.26342 17.4993 5.58697 17.4993C5.91053 17.4993 6.17287 17.237 6.17287 16.9134V13.4455L9.37576 10.2426L12.2969 13.1637L6.63326 18.8274H3.08721ZM16.9143 18.8274H8.29045L13.1255 13.9923L17.7619 18.6288C17.5063 18.7557 17.2186 18.8274 16.9143 18.8274ZM18.8282 16.9135C18.8282 17.2384 18.7466 17.5445 18.6031 17.8128L10.2044 9.41403L12.4135 7.20489C12.6202 7.43903 12.8532 7.65262 13.1108 7.84044L15.1355 12.0878C15.2327 12.2917 15.4385 12.4216 15.6644 12.4216C15.8903 12.4216 16.0961 12.2917 16.1933 12.0878L18.218 7.84044C18.44 7.67848 18.6437 7.49739 18.8282 7.30055V16.9135ZM17.4282 6.96329C17.3412 7.02184 17.2715 7.10262 17.2265 7.19727L15.6644 10.4742L14.1022 7.19727C14.0572 7.10262 13.9875 7.02184 13.9005 6.96329C13.0239 6.37329 12.5005 5.39126 12.5005 4.3363C12.5005 2.59173 13.9198 1.17247 15.6644 1.17247C17.4089 1.17247 18.8282 2.59173 18.8282 4.3363C18.8282 5.39126 18.3049 6.37329 17.4282 6.96329Z" fill="#6C7A8B"/>
</svg>
