<svg width="20" height="20" viewBox="0 0 20 20" fill="none" xmlns="http://www.w3.org/2000/svg">
<g clip-path="url(#clip0)">
<path d="M19.1978 4.71507C19.1978 4.63909 19.181 4.56311 19.1472 4.49135C19.0797 4.34783 18.9488 4.25074 18.8053 4.22119L10.2067 0.0506543C10.0674 -0.0168848 9.90279 -0.0168848 9.76349 0.0506543L1.0805 4.25918C0.91165 4.33938 0.801899 4.50823 0.793457 4.69818V4.70241C0.793457 4.70663 0.793457 4.71085 0.793457 4.71929V15.2807C0.793457 15.4749 0.903208 15.6522 1.0805 15.7366L9.76349 19.9451C9.76771 19.9451 9.76771 19.9451 9.77193 19.9493C9.78459 19.9536 9.79726 19.9578 9.80992 19.9662C9.81414 19.9662 9.81836 19.9705 9.8268 19.9705C9.83947 19.9747 9.85213 19.9789 9.86479 19.9831C9.86902 19.9831 9.87324 19.9873 9.87746 19.9873C9.89012 19.9916 9.90701 19.9916 9.91967 19.9958C9.92389 19.9958 9.92811 19.9958 9.93233 19.9958C9.94922 19.9958 9.97032 20 9.98721 20C10.0041 20 10.0252 20 10.0421 19.9958C10.0463 19.9958 10.0505 19.9958 10.0547 19.9958C10.0674 19.9958 10.0843 19.9916 10.097 19.9873C10.1012 19.9873 10.1054 19.9831 10.1096 19.9831C10.1223 19.9789 10.135 19.9747 10.1476 19.9705C10.1518 19.9705 10.1561 19.9662 10.1645 19.9662C10.1772 19.962 10.1898 19.9578 10.2025 19.9493C10.2067 19.9493 10.2067 19.9493 10.2109 19.9451L18.9192 15.7239C19.0923 15.6395 19.2063 15.4622 19.2063 15.268V4.72773C19.1978 4.72351 19.1978 4.71929 19.1978 4.71507ZM9.98299 1.06796L17.5136 4.71929L14.7403 6.06585L7.20967 2.41452L9.98299 1.06796ZM9.98299 8.37062L2.45238 4.71929L6.04884 2.97594L13.5794 6.62727L9.98299 8.37062ZM1.80654 5.53398L9.47645 9.25285V18.6788L1.80654 14.9599V5.53398ZM10.4895 18.6788V9.25285L14.0902 7.50528V9.97045C14.0902 10.2491 14.3182 10.477 14.5967 10.477C14.8753 10.477 15.1033 10.2491 15.1033 9.97045V7.0114L18.1848 5.5171V14.943L10.4895 18.6788Z" fill="#6F7F91"/>
</g>
<defs>
<clipPath id="clip0">
<rect width="20" height="20" fill="white"/>
</clipPath>
</defs>
</svg>
