<svg width="49" height="49" viewBox="0 0 49 49" fill="none" xmlns="http://www.w3.org/2000/svg">
<path fill-rule="evenodd" clip-rule="evenodd" d="M44.6884 36.7504C44.8599 36.465 45.0257 36.1757 45.1856 35.8828C47.0497 32.4671 48.1093 28.5478 48.1093 24.3806C48.1093 20.2133 47.0497 16.294 45.1856 12.8783C45.0257 12.5854 44.8599 12.2961 44.6884 12.0107C44.5164 11.7246 44.3386 11.4423 44.1552 11.1641C43.2405 11.7131 42.9143 12.8913 43.43 13.8364C45.1377 16.9655 46.1093 20.5563 46.1093 24.3806C46.1093 28.2048 45.1377 31.7956 43.43 34.9247C42.9143 35.8698 43.2405 37.048 44.1552 37.597C44.3386 37.3188 44.5164 37.0365 44.6884 36.7504ZM37.3481 44.4217C36.7971 43.5084 35.6182 43.1849 34.6744 43.7027C31.5483 45.4179 27.9603 46.3937 24.1389 46.3937C20.3175 46.3937 16.7294 45.4179 13.6033 43.7027C12.6595 43.1849 11.4806 43.5084 10.9296 44.4217C11.2073 44.6058 11.4891 44.7843 11.7748 44.9569C12.0599 45.1292 12.3487 45.2957 12.6413 45.4562C16.0547 47.3289 19.9726 48.3937 24.1389 48.3937C28.3051 48.3937 32.223 47.3289 35.6364 45.4562C35.929 45.2957 36.2179 45.1292 36.5029 44.9569C36.7886 44.7843 37.0704 44.6058 37.3481 44.4217ZM4.1225 37.597C5.03723 37.048 5.36345 35.8698 4.84769 34.9247C3.14006 31.7956 2.16846 28.2048 2.16846 24.3806C2.16846 20.5563 3.14006 16.9655 4.84769 13.8364C5.36345 12.8913 5.03723 11.7131 4.12249 11.1641C3.93909 11.4423 3.76132 11.7246 3.58933 12.0107C3.41777 12.2961 3.25198 12.5854 3.0921 12.8783C1.22807 16.294 0.168457 20.2133 0.168457 24.3806C0.168457 28.5478 1.22807 32.4671 3.0921 35.8828C3.25198 36.1757 3.41778 36.465 3.58933 36.7504C3.76132 37.0365 3.93909 37.3188 4.1225 37.597ZM10.9296 4.33937C11.4806 5.25273 12.6595 5.57621 13.6033 5.05836C16.7294 3.34325 20.3175 2.36743 24.1389 2.36743C27.9603 2.36743 31.5483 3.34325 34.6744 5.05836C35.6182 5.57621 36.7971 5.25273 37.3481 4.33937C37.0704 4.15527 36.7886 3.97682 36.5029 3.80416C36.2179 3.63192 35.929 3.46546 35.6364 3.30493C32.223 1.43221 28.3051 0.367432 24.1389 0.367432C19.9726 0.367432 16.0547 1.43221 12.6413 3.30493C12.3487 3.46546 12.0599 3.63192 11.7748 3.80416C11.4891 3.97681 11.2073 4.15527 10.9296 4.33937Z" fill="#1C75BC"/>
<g clip-path="url(#clip0)">
<path d="M24.1388 35.3865C30.2064 35.3865 35.1252 30.459 35.1252 24.3805C35.1252 18.3021 30.2064 13.3745 24.1388 13.3745C18.0711 13.3745 13.1523 18.3021 13.1523 24.3805C13.1523 30.459 18.0711 35.3865 24.1388 35.3865Z" fill="#1C75BC"/>
<path fill-rule="evenodd" clip-rule="evenodd" d="M31.3973 22.2969L29.9979 26.6863C29.9979 26.6863 29.1348 28.8744 27.0817 28.8744H17.1802L17.8874 26.687H26.8592L28.2717 22.2969H19.3122L20.0058 20.1095H29.8544C32.0126 20.1095 31.3973 22.2969 31.3973 22.2969ZM17.5338 23.4766H22.8437L22.1639 25.5073H16.8396L17.5331 23.4766H17.5338Z" fill="white"/>
</g>
<defs>
<clipPath id="clip0">
<rect x="13.1523" y="13.3745" width="21.9729" height="22.012" fill="white"/>
</clipPath>
</defs>
</svg>
