<svg width="49" height="49" viewBox="0 0 49 49" fill="none" xmlns="http://www.w3.org/2000/svg">
<path fill-rule="evenodd" clip-rule="evenodd" d="M45.061 36.7503C45.2325 36.465 45.3983 36.1757 45.5582 35.8827C47.4222 32.467 48.4818 28.5477 48.4818 24.3805C48.4818 20.2133 47.4222 16.294 45.5582 12.8783C45.3983 12.5853 45.2325 12.296 45.061 12.0106C44.889 11.7245 44.7112 11.4423 44.5278 11.1641C43.613 11.713 43.2868 12.8912 43.8026 13.8363C45.5102 16.9655 46.4818 20.5562 46.4818 24.3805C46.4818 28.2047 45.5102 31.7955 43.8026 34.9247C43.2868 35.8697 43.613 37.0479 44.5278 37.5969C44.7112 37.3187 44.889 37.0365 45.061 36.7503ZM37.7207 44.4217C37.1696 43.5083 35.9908 43.1848 35.0469 43.7027C31.9209 45.4178 28.3328 46.3936 24.5114 46.3936C20.69 46.3936 17.102 45.4178 13.9759 43.7027C13.032 43.1848 11.8532 43.5083 11.3021 44.4217C11.5799 44.6058 11.8617 44.7842 12.1474 44.9569C12.4324 45.1291 12.7213 45.2956 13.0139 45.4561C16.4272 47.3288 20.3452 48.3936 24.5114 48.3936C28.6776 48.3936 32.5956 47.3288 36.009 45.4561C36.3015 45.2956 36.5904 45.1291 36.8754 44.9569C37.1611 44.7842 37.4429 44.6058 37.7207 44.4217ZM4.49505 37.5969C5.40979 37.0479 5.73601 35.8697 5.22025 34.9247C3.51262 31.7955 2.54102 28.2047 2.54102 24.3805C2.54102 20.5562 3.51262 16.9655 5.22025 13.8363C5.73601 12.8912 5.40979 11.713 4.49505 11.1641C4.31165 11.4423 4.13388 11.7245 3.96189 12.0106C3.79033 12.296 3.62454 12.5853 3.46466 12.8783C1.60063 16.294 0.541016 20.2133 0.541016 24.3805C0.541016 28.5477 1.60062 32.467 3.46466 35.8827C3.62454 36.1757 3.79033 36.465 3.96189 36.7503C4.13388 37.0365 4.31165 37.3187 4.49505 37.5969ZM11.3021 4.33931C11.8532 5.25267 13.032 5.57615 13.9759 5.0583C17.102 3.34319 20.69 2.36737 24.5114 2.36737C28.3328 2.36737 31.9209 3.34319 35.0469 5.0583C35.9908 5.57615 37.1696 5.25267 37.7207 4.33931C37.4429 4.15521 37.1611 3.97675 36.8754 3.8041C36.5904 3.63186 36.3015 3.4654 36.009 3.30487C32.5956 1.43215 28.6776 0.367371 24.5114 0.367371C20.3452 0.367371 16.4272 1.43215 13.0139 3.30487C12.7213 3.4654 12.4324 3.63186 12.1474 3.8041C11.8617 3.97675 11.5799 4.15521 11.3021 4.33931Z" fill="#F57D65"/>
<g clip-path="url(#clip0)">
<path d="M24.5113 35.3865C30.579 35.3865 35.4978 30.4589 35.4978 24.3805C35.4978 18.302 30.579 13.3745 24.5113 13.3745C18.4437 13.3745 13.5249 18.302 13.5249 24.3805C13.5249 30.4589 18.4437 35.3865 24.5113 35.3865Z" fill="#FF6600"/>
<path d="M24.4907 16.9755C28.6003 16.9755 31.9237 20.3048 31.9237 24.421C31.9209 25.2233 31.7916 26.02 31.5406 26.7818H29.3254V20.5263L24.4914 25.3689L19.6574 20.5263V26.7818H17.4415C17.1907 26.02 17.0616 25.2232 17.0591 24.421C17.0591 20.3048 20.3825 16.9755 24.4914 16.9755H24.4907ZM23.3838 26.4578L24.5113 27.5688L25.6189 26.4585L27.7139 24.3399V28.2745H30.8361C30.1738 29.3656 29.2421 30.2675 28.1308 30.893C27.0196 31.5186 25.7661 31.8468 24.4914 31.846C21.8121 31.846 19.4555 30.4138 18.1467 28.2745H21.2683V24.3399L23.3832 26.4585L23.3838 26.4578Z" fill="white"/>
</g>
<defs>
<clipPath id="clip0">
<rect x="13.5249" y="13.3745" width="21.9729" height="22.012" fill="white"/>
</clipPath>
</defs>
</svg>
