<svg width="49" height="49" viewBox="0 0 49 49" fill="none" xmlns="http://www.w3.org/2000/svg">
<path fill-rule="evenodd" clip-rule="evenodd" d="M45.4128 36.7503C45.5843 36.465 45.7501 36.1757 45.91 35.8827C47.774 32.467 48.8336 28.5477 48.8336 24.3805C48.8336 20.2133 47.774 16.294 45.91 12.8783C45.7501 12.5853 45.5843 12.296 45.4128 12.0106C45.2408 11.7245 45.063 11.4423 44.8796 11.1641C43.9649 11.713 43.6386 12.8912 44.1544 13.8363C45.862 16.9655 46.8336 20.5562 46.8336 24.3805C46.8336 28.2047 45.862 31.7955 44.1544 34.9247C43.6386 35.8697 43.9649 37.0479 44.8796 37.5969C45.063 37.3187 45.2408 37.0365 45.4128 36.7503ZM38.0725 44.4217C37.5214 43.5083 36.3426 43.1848 35.3988 43.7027C32.2727 45.4178 28.6846 46.3936 24.8632 46.3936C21.0418 46.3936 17.4538 45.4178 14.3277 43.7027C13.3838 43.1848 12.205 43.5083 11.6539 44.4217C11.9317 44.6058 12.2135 44.7842 12.4992 44.9569C12.7842 45.1291 13.0731 45.2956 13.3657 45.4561C16.779 47.3288 20.697 48.3936 24.8632 48.3936C29.0294 48.3936 32.9474 47.3288 36.3608 45.4561C36.6534 45.2956 36.9422 45.1291 37.2272 44.9569C37.5129 44.7842 37.7948 44.6058 38.0725 44.4217ZM4.84686 37.5969C5.7616 37.0479 6.08781 35.8697 5.57206 34.9247C3.86443 31.7955 2.89282 28.2047 2.89282 24.3805C2.89282 20.5562 3.86443 16.9655 5.57206 13.8363C6.08781 12.8912 5.7616 11.713 4.84686 11.1641C4.66346 11.4423 4.48568 11.7245 4.31369 12.0106C4.14214 12.296 3.97634 12.5853 3.81647 12.8783C1.95243 16.294 0.892822 20.2133 0.892822 24.3805C0.892822 28.5477 1.95243 32.467 3.81646 35.8827C3.97634 36.1757 4.14214 36.465 4.31369 36.7503C4.48568 37.0365 4.66346 37.3187 4.84686 37.5969ZM11.6539 4.33931C12.205 5.25267 13.3838 5.57615 14.3277 5.0583C17.4538 3.34319 21.0418 2.36737 24.8632 2.36737C28.6846 2.36737 32.2727 3.34319 35.3988 5.0583C36.3426 5.57615 37.5214 5.25267 38.0725 4.33931C37.7948 4.15521 37.5129 3.97675 37.2272 3.8041C36.9422 3.63186 36.6534 3.4654 36.3608 3.30487C32.9474 1.43215 29.0294 0.367371 24.8632 0.367371C20.697 0.367371 16.779 1.43215 13.3657 3.30487C13.0731 3.4654 12.7842 3.63186 12.4992 3.8041C12.2135 3.97675 11.9317 4.15521 11.6539 4.33931Z" fill="#F7931A"/>
<g clip-path="url(#clip0)">
<path d="M24.8631 35.3865C30.9308 35.3865 35.8496 30.4589 35.8496 24.3805C35.8496 18.302 30.9308 13.3745 24.8631 13.3745C18.7955 13.3745 13.8767 18.302 13.8767 24.3805C13.8767 30.4589 18.7955 35.3865 24.8631 35.3865Z" fill="#F7931A"/>
<path d="M29.7993 23.0185C30.0149 21.5767 28.9183 20.8014 27.42 20.2842L27.9062 18.3306L26.7197 18.0348L26.2459 19.9368C25.9341 19.8584 25.6141 19.7855 25.2949 19.7125L25.7721 17.7982L24.5855 17.5017L24.0994 19.4546C23.8412 19.3954 23.5872 19.3377 23.3413 19.2757L23.3427 19.2695L21.7057 18.8603L21.3899 20.1301C21.3899 20.1301 22.2708 20.3323 22.2523 20.3447C22.733 20.4651 22.8195 20.7836 22.8051 21.0367L22.2516 23.262C22.2846 23.2702 22.3271 23.2826 22.3752 23.3012L22.2496 23.2702L21.4736 26.3877C21.4146 26.5335 21.2656 26.753 20.9291 26.6697C20.9415 26.6869 20.0667 26.4544 20.0667 26.4544L19.4775 27.815L21.0225 28.2009C21.3095 28.2732 21.5911 28.3488 21.8678 28.4197L21.3768 30.3953L22.5627 30.691L23.0488 28.7375C23.3729 28.8248 23.6874 28.906 23.995 28.983L23.5102 30.9284L24.6968 31.2241L25.1877 29.2527C27.212 29.6365 28.7336 29.4818 29.3743 27.6479C29.8906 26.1717 29.3489 25.3194 28.2839 24.7643C29.0598 24.5855 29.6434 24.0744 29.7993 23.0185ZM27.087 26.8279C26.721 28.3048 24.2388 27.5062 23.434 27.306L24.0863 24.6886C24.8911 24.8902 27.4709 25.2885 27.087 26.8279ZM27.4544 22.9971C27.12 24.3406 25.0545 23.6575 24.385 23.4904L24.9756 21.1172C25.645 21.2843 27.8032 21.5959 27.4544 22.9971Z" fill="white"/>
</g>
<defs>
<clipPath id="clip0">
<rect x="13.8767" y="13.3745" width="21.9729" height="22.012" fill="white"/>
</clipPath>
</defs>
</svg>
