<svg width="49" height="49" viewBox="0 0 49 49" fill="none" xmlns="http://www.w3.org/2000/svg">
<path fill-rule="evenodd" clip-rule="evenodd" d="M44.9369 36.7504C45.1085 36.465 45.2743 36.1757 45.4342 35.8828C47.2982 32.4671 48.3578 28.5478 48.3578 24.3806C48.3578 20.2133 47.2982 16.294 45.4342 12.8783C45.2743 12.5854 45.1085 12.2961 44.9369 12.0107C44.7649 11.7246 44.5872 11.4423 44.4038 11.1641C43.489 11.7131 43.1628 12.8913 43.6786 13.8364C45.3862 16.9655 46.3578 20.5563 46.3578 24.3806C46.3578 28.2048 45.3862 31.7956 43.6786 34.9247C43.1628 35.8698 43.489 37.048 44.4038 37.597C44.5872 37.3188 44.7649 37.0365 44.9369 36.7504ZM37.5967 44.4217C37.0456 43.5084 35.8668 43.1849 34.9229 43.7027C31.7968 45.4179 28.2088 46.3937 24.3874 46.3937C20.566 46.3937 16.9779 45.4179 13.8519 43.7027C12.908 43.1849 11.7292 43.5084 11.1781 44.4217C11.4559 44.6058 11.7377 44.7843 12.0234 44.9569C12.3084 45.1292 12.5973 45.2957 12.8899 45.4562C16.3032 47.3289 20.2212 48.3937 24.3874 48.3937C28.5536 48.3937 32.4716 47.3289 35.8849 45.4562C36.1775 45.2957 36.4664 45.1292 36.7514 44.9569C37.0371 44.7843 37.3189 44.6058 37.5967 44.4217ZM4.37103 37.597C5.28577 37.048 5.61198 35.8698 5.09623 34.9247C3.3886 31.7956 2.41699 28.2048 2.41699 24.3806C2.41699 20.5563 3.3886 16.9655 5.09623 13.8364C5.61198 12.8913 5.28577 11.7131 4.37103 11.1641C4.18763 11.4423 4.00985 11.7246 3.83786 12.0107C3.66631 12.2961 3.50051 12.5854 3.34064 12.8783C1.4766 16.294 0.416992 20.2133 0.416992 24.3806C0.416992 28.5478 1.4766 32.4671 3.34063 35.8828C3.50051 36.1757 3.66631 36.465 3.83786 36.7504C4.00985 37.0365 4.18763 37.3188 4.37103 37.597ZM11.1781 4.33937C11.7292 5.25273 12.908 5.57621 13.8519 5.05836C16.9779 3.34325 20.566 2.36743 24.3874 2.36743C28.2088 2.36743 31.7968 3.34325 34.9229 5.05836C35.8668 5.57621 37.0456 5.25273 37.5967 4.33937C37.3189 4.15527 37.0371 3.97682 36.7514 3.80416C36.4664 3.63192 36.1775 3.46546 35.8849 3.30493C32.4716 1.43221 28.5536 0.367432 24.3874 0.367432C20.2212 0.367432 16.3032 1.43221 12.8899 3.30493C12.5973 3.46546 12.3084 3.63192 12.0234 3.80416C11.7377 3.97681 11.4559 4.15527 11.1781 4.33937Z" fill="#00AAE4"/>
<g clip-path="url(#clip0)">
<path d="M24.3873 35.3865C30.455 35.3865 35.3738 30.459 35.3738 24.3805C35.3738 18.3021 30.455 13.3745 24.3873 13.3745C18.3197 13.3745 13.4009 18.3021 13.4009 24.3805C13.4009 30.459 18.3197 35.3865 24.3873 35.3865Z" fill="#00AAE4"/>
<path d="M28.4796 25.8973C28.0058 25.6167 27.4722 25.5355 26.9435 25.5162C26.4999 25.5004 25.838 25.2088 25.838 24.3812C25.838 23.7635 26.3255 23.2669 26.9435 23.2449C27.4722 23.2263 28.0065 23.1444 28.4802 22.8638C29.6565 22.1663 30.1763 20.7032 29.7114 19.3928C29.2465 18.0824 27.9323 17.3037 26.594 17.5458C25.2557 17.788 24.28 18.9807 24.28 20.3757C24.28 20.9322 24.4736 21.4447 24.7195 21.9193C24.9268 22.319 25.0312 23.0612 24.3212 23.4815C23.7925 23.7945 23.1333 23.5964 22.8037 23.0557C22.5263 22.599 22.1905 22.1711 21.7202 21.8925C20.5439 21.195 19.0491 21.466 18.1757 22.5336C17.7519 23.0555 17.5205 23.7078 17.5205 24.3806C17.5205 25.0533 17.7519 25.7056 18.1757 26.2275C19.0491 27.2958 20.5439 27.5661 21.7202 26.8686C22.1905 26.5907 22.5263 26.1628 22.8044 25.7061C23.0323 25.3312 23.6023 24.8531 24.3212 25.2796C24.8485 25.5926 25.012 26.277 24.7195 26.8418C24.4729 27.3164 24.28 27.8289 24.28 28.3861C24.28 29.7804 25.2557 30.9732 26.594 31.2153C27.9323 31.4574 29.2465 30.6787 29.7114 29.3683C30.1756 28.0579 29.6565 26.5948 28.4802 25.8973H28.4796Z" fill="white"/>
</g>
<defs>
<clipPath id="clip0">
<rect x="13.4009" y="13.3745" width="21.9729" height="22.012" fill="white"/>
</clipPath>
</defs>
</svg>
