<svg width="49" height="49" viewBox="0 0 49 49" fill="none" xmlns="http://www.w3.org/2000/svg">
<path fill-rule="evenodd" clip-rule="evenodd" d="M45.1855 36.7503C45.357 36.465 45.5228 36.1757 45.6827 35.8827C47.5467 32.467 48.6063 28.5477 48.6063 24.3805C48.6063 20.2133 47.5467 16.294 45.6827 12.8783C45.5228 12.5853 45.357 12.296 45.1855 12.0106C45.0135 11.7245 44.8357 11.4423 44.6523 11.1641C43.7376 11.713 43.4113 12.8912 43.9271 13.8363C45.6347 16.9655 46.6063 20.5562 46.6063 24.3805C46.6063 28.2047 45.6347 31.7955 43.9271 34.9247C43.4113 35.8697 43.7376 37.0479 44.6523 37.5969C44.8357 37.3187 45.0135 37.0365 45.1855 36.7503ZM37.8452 44.4217C37.2941 43.5083 36.1153 43.1848 35.1715 43.7027C32.0454 45.4178 28.4573 46.3936 24.6359 46.3936C20.8145 46.3936 17.2265 45.4178 14.1004 43.7027C13.1565 43.1848 11.9777 43.5083 11.4266 44.4217C11.7044 44.6058 11.9862 44.7842 12.2719 44.9569C12.5569 45.1291 12.8458 45.2956 13.1384 45.4561C16.5517 47.3288 20.4697 48.3936 24.6359 48.3936C28.8021 48.3936 32.7201 47.3288 36.1335 45.4561C36.4261 45.2956 36.7149 45.1291 36.9999 44.9569C37.2856 44.7842 37.5675 44.6058 37.8452 44.4217ZM4.61957 37.5969C5.5343 37.0479 5.86052 35.8697 5.34476 34.9247C3.63713 31.7955 2.66553 28.2047 2.66553 24.3805C2.66553 20.5562 3.63713 16.9655 5.34476 13.8363C5.86052 12.8912 5.5343 11.713 4.61957 11.1641C4.43616 11.4423 4.25839 11.7245 4.0864 12.0106C3.91485 12.296 3.74905 12.5853 3.58917 12.8783C1.72514 16.294 0.665527 20.2133 0.665527 24.3805C0.665527 28.5477 1.72514 32.467 3.58917 35.8827C3.74905 36.1757 3.91485 36.465 4.0864 36.7503C4.25839 37.0365 4.43616 37.3187 4.61957 37.5969ZM11.4266 4.33931C11.9777 5.25267 13.1565 5.57615 14.1004 5.0583C17.2265 3.34319 20.8145 2.36737 24.6359 2.36737C28.4573 2.36737 32.0454 3.34319 35.1715 5.0583C36.1153 5.57615 37.2942 5.25267 37.8452 4.33931C37.5675 4.15521 37.2856 3.97675 36.9999 3.8041C36.7149 3.63186 36.4261 3.4654 36.1335 3.30487C32.7201 1.43215 28.8022 0.367371 24.6359 0.367371C20.4697 0.367371 16.5517 1.43215 13.1384 3.30487C12.8458 3.4654 12.5569 3.63186 12.2719 3.8041C11.9862 3.97675 11.7044 4.15521 11.4266 4.33931Z" fill="#1D61B3"/>
<g clip-path="url(#clip0)">
<path d="M24.6363 35.3865C30.704 35.3865 35.6228 30.4589 35.6228 24.3805C35.6228 18.302 30.704 13.3745 24.6363 13.3745C18.5687 13.3745 13.6499 18.302 13.6499 24.3805C13.6499 30.4589 18.5687 35.3865 24.6363 35.3865Z" fill="#1D61B3"/>
<path fill-rule="evenodd" clip-rule="evenodd" d="M20.8094 26.5913L19.8296 26.9724L20.302 25.0745L21.2935 24.6755L22.7225 18.8774H26.2443L25.2013 23.1395L26.1694 22.7467L25.7025 24.6384L24.7227 25.0312L24.1404 27.4271H29.4427L28.8433 29.8835H20.0026L20.8094 26.5913Z" fill="white"/>
</g>
<defs>
<clipPath id="clip0">
<rect x="13.6499" y="13.3745" width="21.9729" height="22.012" fill="white"/>
</clipPath>
</defs>
</svg>
