<svg width="49" height="49" viewBox="0 0 49 49" fill="none" xmlns="http://www.w3.org/2000/svg">
<path fill-rule="evenodd" clip-rule="evenodd" d="M44.8124 36.7504C44.984 36.465 45.1498 36.1757 45.3096 35.8828C47.1737 32.4671 48.2333 28.5478 48.2333 24.3806C48.2333 20.2133 47.1737 16.294 45.3096 12.8783C45.1498 12.5854 44.984 12.2961 44.8124 12.0107C44.6404 11.7246 44.4627 11.4423 44.2793 11.1641C43.3645 11.7131 43.0383 12.8913 43.5541 13.8364C45.2617 16.9655 46.2333 20.5563 46.2333 24.3806C46.2333 28.2048 45.2617 31.7956 43.5541 34.9247C43.0383 35.8698 43.3645 37.048 44.2793 37.597C44.4627 37.3188 44.6404 37.0365 44.8124 36.7504ZM37.4722 44.4217C36.9211 43.5084 35.7423 43.1849 34.7984 43.7027C31.6723 45.4179 28.0843 46.3937 24.2629 46.3937C20.4415 46.3937 16.8534 45.4179 13.7274 43.7027C12.7835 43.1849 11.6047 43.5084 11.0536 44.4217C11.3314 44.6058 11.6132 44.7843 11.8989 44.9569C12.1839 45.1292 12.4728 45.2957 12.7653 45.4562C16.1787 47.3289 20.0967 48.3937 24.2629 48.3937C28.4291 48.3937 32.3471 47.3289 35.7604 45.4562C36.053 45.2957 36.3419 45.1292 36.6269 44.9569C36.9126 44.7843 37.1944 44.6058 37.4722 44.4217ZM4.24652 37.597C5.16126 37.048 5.48747 35.8698 4.97172 34.9247C3.26409 31.7956 2.29248 28.2048 2.29248 24.3806C2.29248 20.5563 3.26409 16.9655 4.97172 13.8364C5.48747 12.8913 5.16126 11.7131 4.24652 11.1641C4.06312 11.4423 3.88534 11.7246 3.71335 12.0107C3.5418 12.2961 3.376 12.5854 3.21612 12.8783C1.35209 16.294 0.29248 20.2133 0.29248 24.3806C0.29248 28.5478 1.35209 32.4671 3.21612 35.8828C3.376 36.1757 3.5418 36.465 3.71335 36.7504C3.88534 37.0365 4.06312 37.3188 4.24652 37.597ZM11.0536 4.33937C11.6047 5.25273 12.7835 5.57621 13.7274 5.05836C16.8534 3.34325 20.4415 2.36743 24.2629 2.36743C28.0843 2.36743 31.6723 3.34325 34.7984 5.05836C35.7423 5.57621 36.9211 5.25273 37.4722 4.33937C37.1944 4.15527 36.9126 3.97682 36.6269 3.80416C36.3419 3.63192 36.053 3.46546 35.7604 3.30493C32.3471 1.43221 28.4291 0.367432 24.2629 0.367432C20.0967 0.367432 16.1787 1.43221 12.7653 3.30493C12.4728 3.46546 12.1839 3.63192 11.8989 3.80416C11.6132 3.97681 11.3314 4.15527 11.0536 4.33937Z" fill="#669073"/>
<g clip-path="url(#clip0)">
<path d="M24.2628 35.3865C30.3304 35.3865 35.2492 30.459 35.2492 24.3805C35.2492 18.3021 30.3304 13.3745 24.2628 13.3745C18.1952 13.3745 13.2764 18.3021 13.2764 24.3805C13.2764 30.459 18.1952 35.3865 24.2628 35.3865Z" fill="#669073"/>
<path fill-rule="evenodd" clip-rule="evenodd" d="M19.6417 23.5235L24.6488 21.4715L29.502 23.5757L24.6405 16.126L19.6417 23.5235ZM19.6568 25.7996L24.6556 28.6144L29.7561 25.7996L24.7023 32.6351L19.6568 25.7996ZM24.6714 22.4751L29.741 24.6688L24.6714 27.4237L19.4563 24.6089L24.6714 22.4751Z" fill="white"/>
</g>
<defs>
<clipPath id="clip0">
<rect x="13.2764" y="13.3745" width="21.9729" height="22.012" fill="white"/>
</clipPath>
</defs>
</svg>
