<svg width="21" height="21" viewBox="0 0 21 21" fill="none" xmlns="http://www.w3.org/2000/svg">
<path d="M12.2504 4.3751C12.2504 6.79136 10.2916 8.75004 7.87534 8.75004C5.45908 8.75004 3.50024 6.79136 3.50024 4.3751C3.50024 1.95884 5.45908 0 7.87534 0C10.2916 0 12.2504 1.95884 12.2504 4.3751Z" fill="#E45D50"/>
<path d="M8.31264 15.3126C8.31264 13.448 9.05029 11.7557 10.2428 10.5001H4.15624C1.86463 10.5001 0 12.3647 0 14.6563V17.7189C0 18.0812 0.294002 18.3752 0.656257 18.3752H9.02754C8.57428 17.4485 8.31264 16.4117 8.31264 15.3126Z" fill="#E45D50"/>
<path d="M15.3123 9.62494C12.1764 9.62494 9.62488 12.1764 9.62488 15.3124C9.62488 18.4485 12.1764 21 15.3123 21C18.4485 21 20.9999 18.4485 20.9999 15.3124C20.9999 12.1764 18.4485 9.62494 15.3123 9.62494ZM17.2435 17.2435C17.073 17.4141 16.8488 17.5 16.6248 17.5C16.4009 17.5 16.1769 17.4141 16.0062 17.2435L14.6937 15.931C14.5292 15.7674 14.4374 15.5452 14.4374 15.3124V13.1249C14.4374 12.6411 14.8294 12.25 15.3123 12.25C15.7954 12.25 16.1874 12.6411 16.1874 13.1249V14.9501L17.2435 16.0063C17.5857 16.3485 17.5857 16.9014 17.2435 17.2435Z" fill="#E45D50"/>
</svg>
