<svg width="22" height="18" viewBox="0 0 22 18" fill="none" xmlns="http://www.w3.org/2000/svg">
<path d="M10.5879 8.80326C12.5893 8.80326 14.2119 6.83257 14.2119 4.40166C14.2119 1.9707 13.6791 0 10.5879 0C7.49669 0 6.96399 1.9707 6.96399 4.40166C6.96404 6.83257 8.58658 8.80326 10.5879 8.80326Z" fill="#355A24"/>
<path d="M17.4251 15.3464C17.3581 11.1116 16.805 9.90493 12.5727 9.14107C12.5727 9.14107 11.9769 9.90019 10.5883 9.90019C9.19969 9.90019 8.60393 9.14107 8.60393 9.14107C4.41784 9.89653 3.83103 11.0854 3.7539 15.2088C3.74763 15.5455 3.74474 15.5632 3.74359 15.5241C3.74381 15.5973 3.74414 15.7328 3.74414 15.969C3.74414 15.969 4.75177 18.0002 10.5883 18.0002C16.4249 18.0002 17.4326 15.969 17.4326 15.969C17.4326 15.8173 17.4327 15.7117 17.4328 15.6399C17.4317 15.6641 17.4293 15.6172 17.4251 15.3464Z" fill="#355A24"/>
<path d="M15.6172 8.01738C17.2428 8.01738 18.5605 6.41683 18.5605 4.44248C18.5605 2.46807 18.1278 0.867523 15.6172 0.867523C15.1949 0.867523 14.8315 0.91296 14.5189 0.997779C15.0988 2.06678 15.1783 3.36519 15.1783 4.40163C15.1783 5.57513 14.8602 6.69551 14.2744 7.62318C14.677 7.87464 15.1333 8.01738 15.6172 8.01738Z" fill="#355A24"/>
<path d="M21.1701 13.3315C21.1156 9.89208 20.6665 8.91205 17.2291 8.29164C17.2291 8.29164 16.7452 8.90823 15.6174 8.90823C15.5707 8.90823 15.5255 8.90681 15.481 8.90479C16.1976 9.22787 16.8495 9.67771 17.3295 10.336C18.1595 11.474 18.3503 13.0027 18.3896 15.2485C20.7022 14.7915 21.1762 13.8372 21.1762 13.8372C21.1762 13.7129 21.1762 13.6276 21.1764 13.5693C21.1755 13.5898 21.1736 13.553 21.1701 13.3315Z" fill="#355A24"/>
<path d="M5.55863 8.01733C6.04262 8.01733 6.49879 7.87458 6.90161 7.62318C6.31578 6.69551 5.99767 5.57513 5.99767 4.40163C5.99767 3.36514 6.07714 2.06672 6.65692 0.99778C6.34437 0.91296 5.98103 0.867523 5.55863 0.867523C3.04803 0.867523 2.61548 2.46807 2.61548 4.44248C2.61548 6.41678 3.93321 8.01733 5.55863 8.01733Z" fill="#355A24"/>
<path d="M5.69528 8.9048C5.65088 8.90681 5.60566 8.90823 5.55891 8.90823C4.43111 8.90823 3.94723 8.29164 3.94723 8.29164C0.509952 8.91205 0.0607099 9.89203 0.00627281 13.3315C0.00272731 13.5531 0.000927285 13.5898 0 13.5692C0.000109092 13.6275 0.000218185 13.7128 0.000218185 13.8372C0.000218185 13.8372 0.474225 14.7915 2.78666 15.2485C2.8262 13.0027 3.0169 11.474 3.84692 10.3359C4.32693 9.67777 4.9787 9.22787 5.69528 8.9048Z" fill="#355A24"/>
</svg>
