<svg width="20" height="20" viewBox="0 0 20 20" fill="none" xmlns="http://www.w3.org/2000/svg">
<path d="M6.43501 0.0126953L5.92794 0.305469C5.14642 0.75668 4.58739 1.4852 4.35388 2.35684C4.12032 3.22852 4.24017 4.13895 4.69138 4.92043L7.02481 8.96207L9.31337 4.99816L6.43501 0.0126953Z" fill="#384883"/>
<path d="M19.4263 13.7342C18.8692 12.7693 17.9683 12.0787 16.8897 11.7897C15.8109 11.5006 14.6855 11.6483 13.7206 12.2053C13.6591 12.2408 13.5985 12.2779 13.5389 12.3165L12.9544 11.3042L10.6658 15.2681L12.1132 17.7752V17.7956L12.2015 17.928C12.7593 18.884 13.656 19.5683 14.7283 19.8556C15.0891 19.9523 15.4551 20.0001 15.8186 20.0001C16.5419 20.0001 17.2553 19.8107 17.8974 19.4399C18.8623 18.8829 19.5528 17.982 19.8419 16.9033C20.131 15.8246 19.9834 14.6991 19.4263 13.7342ZM17.5315 16.2842C17.4082 16.7443 17.1131 17.1288 16.7007 17.367C16.4259 17.5256 16.1209 17.6067 15.8119 17.6067C15.657 17.6067 15.5011 17.5863 15.3474 17.5452C14.8874 17.4219 14.5028 17.1268 14.2646 16.7143C14.0264 16.3018 13.9632 15.8213 14.0865 15.3611C14.2098 14.901 14.5049 14.5165 14.9174 14.2783C15.3299 14.0401 15.8104 13.9768 16.2706 14.1001C16.7307 14.2235 17.1152 14.5185 17.3533 14.931C17.5915 15.3435 17.6548 15.8241 17.5315 16.2842Z" fill="#384883"/>
<path d="M15.6324 2.34414C15.3989 1.47246 14.8398 0.743945 14.0583 0.292773L13.5512 0L6.44763 12.3038C6.38803 12.2652 6.3274 12.2281 6.26588 12.1926C5.62373 11.8218 4.91049 11.6324 4.18721 11.6324C3.82369 11.6324 3.45767 11.6802 3.09685 11.7769C2.01814 12.0659 1.11724 12.7565 0.560213 13.7214C0.00306442 14.6864 -0.144553 15.8118 0.14451 16.8905C0.433533 17.9693 1.12412 18.8701 2.089 19.4272C2.73119 19.798 3.44431 19.9873 4.16767 19.9873C4.16771 19.9873 4.16775 19.9873 4.16779 19.9873C4.53127 19.9873 4.89732 19.9395 5.2581 19.8429C6.33049 19.5555 7.22713 18.8713 7.78494 17.9152L7.87326 17.7827V17.7623L15.2949 4.90773C15.7461 4.12621 15.8659 3.21578 15.6324 2.34414ZM5.72181 16.7016C5.48365 17.1141 5.09912 17.4091 4.639 17.5324C4.48537 17.5736 4.32939 17.5939 4.17455 17.5939C3.86553 17.5939 3.56056 17.5129 3.2858 17.3543C2.8733 17.1161 2.57818 16.7315 2.45494 16.2714C2.33166 15.8113 2.39494 15.3308 2.6331 14.9182C2.87127 14.5057 3.2558 14.2107 3.71588 14.0874C4.17599 13.9641 4.65654 14.0273 5.06908 14.2655C5.48162 14.5037 5.77674 14.8883 5.89998 15.3484C6.02326 15.8085 5.95994 16.289 5.72181 16.7016Z" fill="#384883"/>
</svg>
