<svg width="15" height="20" viewBox="0 0 15 20" fill="none" xmlns="http://www.w3.org/2000/svg">
<path d="M7.16578 6.7755C9.03678 6.7755 10.5535 5.25875 10.5535 3.38775C10.5535 1.51675 9.03678 0 7.16578 0C5.29478 0 3.77803 1.51675 3.77803 3.38775C3.77803 5.25875 5.29478 6.7755 7.16578 6.7755Z" fill="#FDC04E"/>
<path d="M7.1662 10.4658C8.61946 10.4658 9.80174 9.26733 9.80174 7.83023H4.53021C4.53021 9.26733 5.71249 10.4658 7.1662 10.4658Z" fill="#FDC04E"/>
<path d="M11.1126 7.85717C11.0977 9.79383 9.67897 11.4023 7.83059 11.7126V14.8932C7.83059 16.5313 6.5928 17.9697 4.95728 18.0624C3.26406 18.1585 1.84139 16.8604 1.74042 15.2122C1.29199 14.9513 1.01313 14.4272 1.12197 13.8516C1.21856 13.3385 1.64339 12.9202 2.1587 12.8332C2.96903 12.696 3.67053 13.3158 3.67053 14.0999C3.67053 14.5684 3.41966 14.9784 3.04465 15.203C3.14037 16.1296 3.96468 16.8429 4.93455 16.7551C5.84453 16.6729 6.51063 15.849 6.51063 14.9351V11.7117C4.66313 11.4018 3.24352 9.79296 3.22865 7.85629C1.40388 8.09187 0 9.65091 0 11.5395V18.3661C0 19.2678 0.73166 19.9995 1.63334 19.9995H12.7066C13.6087 19.9995 14.3404 19.2683 14.3404 18.3661V11.5404C14.3417 9.65179 12.9373 8.09275 11.1126 7.85717Z" fill="#FDC04E"/>
</svg>
