<svg width="22" height="22" viewBox="0 0 22 22" fill="none" xmlns="http://www.w3.org/2000/svg">
<path d="M12.8534 5.35527C10.7628 5.35527 9.06219 7.05587 9.06219 9.14644C9.06219 11.237 10.7628 12.9376 12.8534 12.9376C14.9439 12.9376 16.6445 11.237 16.6445 9.14644C16.6445 7.05587 14.9439 5.35527 12.8534 5.35527ZM13.4852 10.4102H12.2215V7.88272H13.4852V10.4102Z" fill="#D042A0"/>
<path d="M17.9083 1.5641C16.5149 1.5641 15.3808 2.69816 15.3808 4.09155C15.3808 5.48494 16.5149 6.619 17.9083 6.619C19.3017 6.619 20.4357 5.48494 20.4357 4.09155C20.4357 2.69816 19.3017 1.5641 17.9083 1.5641Z" fill="#D042A0"/>
<path d="M12.2215 0.216125C11.1765 0.216125 10.3259 1.06667 10.3259 2.11171C10.3259 3.15675 11.1765 4.0073 12.2215 4.0073C13.2666 4.0073 14.1171 3.15675 14.1171 2.11171C14.1171 1.06667 13.2666 0.216125 12.2215 0.216125Z" fill="#D042A0"/>
<path d="M18.5869 14.5635L15.3227 17.9925C15.0117 17.9925 12.3102 17.9925 9.27282 17.9925V16.7288H14.749C14.749 15.3329 13.6174 14.2013 12.2215 14.2013H9.06236C8.48595 13.4339 7.56827 12.9376 6.53475 12.9376C5.61773 12.9376 4.79186 13.3284 4.21479 13.9524C3.37988 14.8553 2.27856 15.4651 1.0489 15.4651H0.216125V21.7837H16.2226L21.7837 14.8326C21.049 13.7418 19.4935 13.611 18.5869 14.5635Z" fill="#D042A0"/>
</svg>
