<svg width="25" height="31" viewBox="0 0 25 31" fill="none" xmlns="http://www.w3.org/2000/svg">
<path d="M23.3242 20.41C22.3755 19.2803 21.0806 18.6393 19.6276 18.6393H16.9225V16.5609C17.5258 15.862 18.0277 15.071 18.4207 14.278C19.193 14.1475 19.9686 13.3468 20.3719 12.2035C20.8648 10.8061 20.6446 9.5519 19.8456 9.10199C20.1814 7.29099 19.6867 5.12812 18.5131 3.49832C17.2088 1.68682 15.1921 0.689148 12.8305 0.689148C10.4689 0.689148 8.4511 1.68692 7.14672 3.49853C5.97689 5.12339 5.47771 7.27781 5.80735 9.0852C4.98365 9.51972 4.742 10.7882 5.24099 12.2036C5.65781 13.3842 6.42047 14.1768 7.2143 14.2841C7.62992 15.1218 8.07309 15.9562 8.77702 16.6823V18.6393H6.03864C4.58553 18.6393 3.25702 19.2803 2.30832 20.41C1.4254 21.4616 0.93335 22.8724 0.93335 24.349V27.1845C0.93335 27.476 1.10541 27.7422 1.36767 27.8697C5.58119 29.9204 9.56461 30.5558 12.8803 30.5557C14.6258 30.5557 16.1888 30.3795 17.5021 30.1411C21.6371 29.3904 24.2043 27.9067 24.3127 27.8439C24.548 27.7077 24.6659 27.4563 24.6659 27.1844V24.3489C24.6657 22.8725 24.2072 21.4616 23.3242 20.41ZM13.7045 23.6483C13.7045 23.9366 13.4708 24.1702 13.1826 24.1702H12.4164C12.1281 24.1702 11.8945 23.9365 11.8945 23.6483V22.8821C11.8945 22.5938 12.1282 22.3602 12.4164 22.3602H13.1826C13.4709 22.3602 13.7045 22.5939 13.7045 22.8821V23.6483ZM14.194 21.0748C13.9057 20.9195 13.576 20.8517 13.2254 20.8517H12.4404C12.0899 20.8517 11.7601 20.9195 11.4718 21.0748L10.2032 19.7996C10.2577 19.6946 10.2853 19.5653 10.2853 19.4388V18.0814C10.9893 18.6049 11.8826 18.9262 12.7988 18.9262C13.7554 18.9262 14.6095 18.5748 15.414 18.0093V19.4388C15.414 19.538 15.4639 19.6427 15.4983 19.7298L14.194 21.0748ZM8.38483 4.38909C9.09942 3.39646 10.4513 2.21325 12.8329 2.21325C15.2146 2.21325 16.5664 3.39636 17.281 4.38889C18.3928 5.93291 18.5939 7.78183 18.3171 9.00465C13.3295 10.2248 10.9407 5.54062 10.8422 5.34221C10.6966 5.04495 10.3768 4.87641 10.0481 4.92398C9.72048 4.97175 9.46114 5.22586 9.40623 5.55239C9.4007 5.58547 8.8626 8.5123 7.35237 9.01923C7.0705 7.79701 7.2685 5.93935 8.38483 4.38909ZM6.52525 10.587C8.63231 10.7535 9.88792 8.93657 10.4397 7.48336C10.7731 7.9031 11.1944 8.36679 11.7062 8.80896C13.1794 10.0821 14.8793 10.7312 16.7009 10.7312C17.3484 10.7312 18.4197 10.6491 19.0934 10.4839C19.1386 10.6881 19.1518 11.1347 18.9537 11.6966C18.7253 12.344 18.3943 12.6708 18.2512 12.7554C18.0893 12.6977 17.9112 12.696 17.7469 12.7528C17.547 12.8218 17.3846 12.9705 17.2989 13.1638C16.4298 15.119 14.7388 17.4022 12.8329 17.4022C10.9226 17.4022 9.23035 15.1121 8.3615 13.151C8.2726 12.9505 8.10155 12.7978 7.89198 12.7323C7.81766 12.7091 7.74104 12.6977 7.66471 12.6977C7.56687 12.6977 7.46952 12.7166 7.37811 12.7537C7.2334 12.6663 6.90548 12.3395 6.67851 11.6967C6.50293 11.1984 6.49378 10.8111 6.52525 10.587ZM2.44167 24.349C2.44167 22.3381 3.7199 20.1477 6.03864 20.1477H8.46297L10.4886 22.2039C10.4251 22.4014 10.386 22.638 10.386 22.8565V23.6416C10.386 24.2137 10.6254 24.7303 11.0039 25.1017L10.328 28.8966C7.92215 28.6428 5.25738 27.9981 2.44167 26.7033V24.349ZM11.8756 29.0046L12.4572 25.6786H13.2086L13.7912 29.0078C13.18 29.0303 12.5399 29.0323 11.8756 29.0046ZM23.1573 26.724C22.3528 27.1415 20.1636 28.1133 17.1498 28.6527C16.582 28.7544 15.9745 28.8431 15.3144 28.9093L14.6234 25.1018C15.0019 24.7305 15.2128 24.2138 15.2128 23.6417V22.8566C15.2128 22.6381 15.2072 22.4015 15.1437 22.204L17.2028 20.1478H19.6274C21.9459 20.1478 23.1572 22.3382 23.1572 24.3491V26.724H23.1573Z" fill="#384883"/>
</svg>
