<?xml version="1.0" encoding="iso-8859-1"?>
<!-- Generator: Adobe Illustrator 19.0.0, SVG Export Plug-In . SVG Version: 6.00 Build 0)  -->
<svg version="1.1" id="Capa_1" xmlns="http://www.w3.org/2000/svg" xmlns:xlink="http://www.w3.org/1999/xlink" x="0px" y="0px"
	 viewBox="0 0 512 512" style="enable-background:new 0 0 512 512;" xml:space="preserve">
<circle style="fill:#FFECB3;" cx="256" cy="256" r="256"/>
<path style="fill:#FFD863;" d="M512,256c0-6.191-0.233-12.328-0.665-18.409l-89.668-89.668l-26.533,35.544l-79.484-78.651
	L205.667,105L90.333,367.923l143.073,143.073C240.853,511.647,248.385,512,256,512C397.385,512,512,397.385,512,256z"/>
<path style="fill:#603813;" d="M326.667,174.333h-20V130.5c0-8.547-6.953-15.5-15.5-15.5h-70.334c-8.547,0-15.5,6.953-15.5,15.5
	v43.833h-20V130.5c0-19.575,15.925-35.5,35.5-35.5h70.334c19.575,0,35.5,15.925,35.5,35.5V174.333z"/>
<path style="fill:#42210B;" d="M291.167,95h-35.548v20h35.548c8.547,0,15.5,6.953,15.5,15.5v43.833h20V130.5
	C326.667,110.925,310.742,95,291.167,95z"/>
<rect x="90.33" y="147.92" style="fill:#603813;" width="331.33" height="220"/>
<rect x="255.62" y="147.92" style="fill:#42210B;" width="166.05" height="220"/>
<rect x="90.33" y="147.92" style="fill:#8C6239;" width="331.33" height="98"/>
<rect x="255.62" y="147.92" style="fill:#754C24;" width="166.05" height="98"/>
<rect x="235.33" y="221.67" style="fill:#FFDC00;" width="41.33" height="54"/>
<rect x="255.62" y="221.67" style="fill:#FFC000;" width="21.05" height="54"/>
<g>
</g>
<g>
</g>
<g>
</g>
<g>
</g>
<g>
</g>
<g>
</g>
<g>
</g>
<g>
</g>
<g>
</g>
<g>
</g>
<g>
</g>
<g>
</g>
<g>
</g>
<g>
</g>
<g>
</g>
</svg>
