<svg id="_x33_0" enable-background="new 0 0 64 64" height="512" viewBox="0 0 64 64" width="512" xmlns="http://www.w3.org/2000/svg"><g><g><g><circle cx="9" cy="49" fill="#e6e9ed" r="7"/></g><g><path d="m14.26 50.79c-.38-1.13-1.09-2.08-2.02-2.74-.92-.67-2.04-1.05-3.24-1.05-2.39 0-4.51 1.53-5.26 3.79l-.65 1.95c1.23 1.96 3.42 3.26 5.91 3.26s4.68-1.3 5.91-3.26z" fill="#5cd6b3"/></g><g><circle cx="49" cy="21" fill="#e6e9ed" r="13"/></g><g><circle cx="15" cy="21" fill="#e6e9ed" r="13"/></g><g><path d="m42.11 22.2 6.89 11.8c-4.02 0-7.61-1.82-10-4.69v-.01-1.76c0-1.63.65-3.19 1.8-4.34.39-.39.83-.72 1.31-1z" fill="#fcd770"/></g><g><path d="m59 27.54v1.71c-2.29 2.77-5.7 4.59-9.47 4.74-.18.01-.35.01-.53.01l6.89-11.8c.48.28.92.61 1.31 1 1.15 1.15 1.8 2.71 1.8 4.34z" fill="#fcd770"/></g><g><path d="m54.35 21.59c.54.13 1.06.34 1.54.61l-6.89 11.8v-11c1.23 0 2.35-.69 2.89-1.79l.11-.21z" fill="#ffeaa7"/></g><g><path d="m46.11 21.21c.54 1.1 1.66 1.79 2.89 1.79v11l-6.89-11.8c.48-.27 1-.48 1.54-.61l2.35-.59z" fill="#ffeaa7"/></g><g><path d="m15 30v4c-2.16 0-4.2-.53-6-1.46-1.54-.81-2.9-1.91-4-3.23v-.01-1.76c0-1.2.35-2.37 1-3.36.23-.35.5-.68.8-.98.78-.78 1.77-1.34 2.85-1.61l.59-.15 1.98 3.56z" fill="#ff826e"/></g><g><path d="m25 29.3v.01c-2.39 2.87-5.98 4.69-10 4.69v-4l2.78-5 1.98-3.56.59.15c1.08.27 2.07.83 2.85 1.61.31.31.58.64.81 1v.01c.64.99.99 2.14.99 3.33z" fill="#ff826e"/></g><g><path d="m17.78 25-2.78 5-2.78-5z" fill="#ccd1d9"/></g><g><path d="m15 8c-1.32 1.32-2.92 2.31-4.68 2.89l-.32.11v3c0 1.91 1.07 3.57 2.65 4.41l-.65 2.59-1.76.44-.59.15c-1.08.27-2.07.83-2.85 1.61-.3.3-.57.63-.8.98v-12.56-.62c0-4.97 4.03-9 9-9 2.48 0 4.74 1.01 6.36 2.64 1.63 1.62 2.64 3.88 2.64 6.36v.62l.01 12.58c-.23-.36-.5-.69-.81-1-.78-.78-1.77-1.34-2.85-1.61l-.59-.15-1.76-.44-.65-2.59c.44-.23.84-.52 1.19-.87.9-.91 1.46-2.16 1.46-3.54v-3l-.32-.11c-1.76-.58-3.36-1.57-4.68-2.89z" fill="#656d78"/></g><g><path d="m47.7 8.07-.01.01-.66.16c-1.78.45-3.03 2.05-3.03 3.88v1.88c0 .34.03.68.1 1l-.71-.68c-.91-.87-1.6-1.94-2-3.14-.07-.2-.12-.4-.17-.6-.15-.6-.22-1.21-.22-1.83v-.75c0-3.31 2.69-6 6-6h8c1.1 0 2 .9 2 2v4.75c0 .62-.07 1.23-.22 1.83-.05.2-.1.4-.17.6-.4 1.2-1.09 2.27-2 3.14l-.71.68c.07-.32.1-.66.1-1v-2.27c0-.99-.73-1.83-1.72-1.98l-2.31-.33c-.94-.13-1.74-.64-2.27-1.35z" fill="#b27946"/></g><g><path d="m26 62h-6v-4c0-4.42 3.58-8 8-8h1 6 7v-6h6v8c0 2.21-1.79 4-4 4h-6v6z" fill="#4fc1e9"/></g><g><path d="m38 34v6c0 2.64-1.71 4.89-4.08 5.68-.6.21-1.25.32-1.92.32s-1.32-.11-1.92-.32c-2.37-.79-4.08-3.04-4.08-5.68v-3c0-2.76 2.24-5 5-5h5c1.1 0 2 .9 2 2z" fill="#656d78"/></g><g><path d="m52 46h10v4h-10z" fill="#fcd770"/></g><g><path d="m52 38h10v4h-10z" fill="#fcd770"/></g><g><path d="m48 41v3h-6v-3c0-1.66 1.34-3 3-3 .83 0 1.58.34 2.12.88s.88 1.29.88 2.12z" fill="#f0d0b4"/></g><g><path d="m33.92 45.69 1.08 4.31h-6l1.08-4.31v-.01c.6.21 1.25.32 1.92.32s1.32-.11 1.92-.32z" fill="#f0d0b4"/></g><g><path d="m9 39c2.21 0 4 1.79 4 4 0 .08 0 .17-.01.25-.13 2.09-1.86 3.75-3.99 3.75s-3.86-1.66-3.99-3.75c-.01-.08-.01-.17-.01-.25 0-2.21 1.79-4 4-4z" fill="#f0d0b4"/></g><g><path d="m19.76 21.44-1.98 3.56h-5.56l-1.98-3.56 1.76-.44.65-2.59c.7.38 1.5.59 2.35.59s1.65-.21 2.35-.59l.65 2.59z" fill="#f0d0b4"/></g><g><path d="m20 11v3c0 1.38-.56 2.63-1.46 3.54-.35.35-.75.64-1.19.87-.7.38-1.5.59-2.35.59s-1.65-.21-2.35-.59c-1.58-.84-2.65-2.5-2.65-4.41v-3l.32-.11c1.76-.58 3.36-1.57 4.68-2.89 1.32 1.32 2.92 2.31 4.68 2.89z" fill="#f0d0b4"/></g><g><path d="m46.65 18.41 2.35.59c.85 0 1.65-.21 2.35-.59l.65 2.59-.11.21c-.54 1.1-1.66 1.79-2.89 1.79s-2.35-.69-2.89-1.79l-.11-.21z" fill="#f0d0b4"/></g><g><path d="m47.03 8.24.66-.16.01-.01c.53.71 1.33 1.22 2.27 1.35l2.31.33c.99.15 1.72.99 1.72 1.98v2.27c0 .34-.03.68-.1 1-.3 1.48-1.25 2.72-2.55 3.41-.7.38-1.5.59-2.35.59l-2.35-.59c-.44-.23-.84-.52-1.19-.87-.68-.68-1.16-1.56-1.36-2.54-.07-.32-.1-.66-.1-1v-1.88c0-1.83 1.25-3.43 3.03-3.88z" fill="#f0d0b4"/></g></g><g><path d="m62.975 21.85c.267-4.507-1.642-8.801-5.101-11.647.081-.478.126-.962.126-1.451v-4.752c0-1.654-1.346-3-3-3h-8c-3.86 0-7 3.14-7 7v.752c0 .487.045.97.126 1.448-2.996 2.459-4.799 5.953-5.068 9.8h-6.108c-.232-3.318-1.61-6.386-3.95-8.776v-.224c0-5.514-4.486-10-10-10s-10 4.486-10 10v.224c-2.575 2.63-4 6.078-4 9.776 0 5.168 2.823 9.681 7 12.106v4.995c-2.199.448-3.86 2.35-3.975 4.652-1.897 1.513-3.025 3.805-3.025 6.247 0 4.411 3.589 8 8 8s8-3.589 8-8c0-2.442-1.128-4.734-3.025-6.247-.115-2.302-1.776-4.203-3.975-4.652v-4.04c1.555.598 3.237.939 5 .939 7.382 0 13.433-5.747 13.949-13h6.1c.242 3.463 1.721 6.665 4.252 9.097 2.634 2.529 6.055 3.903 9.692 3.903.192 0 .386-.004.58-.012 7.095-.283 12.983-6.054 13.402-13.138zm-58.51 23.226c.316.687.788 1.28 1.363 1.757-1.201.666-2.174 1.703-2.765 2.992-.037-.271-.063-.545-.063-.825 0-1.456.532-2.845 1.465-3.924zm-.27 7.502.489-1.467c.512-1.535 1.786-2.642 3.316-2.987v6.785c-1.552-.261-2.9-1.119-3.805-2.331zm5.805 2.332v-6.785c1.53.345 2.804 1.452 3.316 2.987l.489 1.467c-.905 1.211-2.253 2.069-3.805 2.331zm5-5.91c0 .28-.026.554-.063.825-.591-1.289-1.564-2.325-2.765-2.992.576-.477 1.047-1.07 1.363-1.757.933 1.079 1.465 2.468 1.465 3.924zm-3-6c0 1.654-1.346 3-3 3s-3-1.346-3-3 1.346-3 3-3 3 1.346 3 3zm48.979-21.268c-.091 1.545-.49 3.016-1.128 4.357-.279-1.352-.943-2.595-1.941-3.593-.915-.915-2.062-1.564-3.316-1.877l-1.769-.442-.328-1.31c1.113-.802 1.938-1.975 2.298-3.337l.508-.484c.821-.782 1.473-1.728 1.935-2.761 2.568 2.425 3.953 5.861 3.741 9.447zm-11.979-3.732c-2.206 0-4-1.794-4-4v-1.877c0-1.379.935-2.576 2.272-2.91l.083-.021c.658.642 1.513 1.085 2.473 1.222l2.313.331c.49.07.859.495.859.989v2.266c0 2.206-1.794 4-4 4zm0 2c.576 0 1.132-.086 1.659-.239l.275 1.098c-.397.702-1.121 1.141-1.934 1.141s-1.537-.439-1.934-1.14l.275-1.098c.527.152 1.083.238 1.659.238zm-3.496 2.155c.593.872 1.483 1.474 2.496 1.718v6.432l-4.459-7.634c.117-.038.231-.083.351-.113zm4.496 1.718c1.014-.244 1.903-.847 2.496-1.719l1.612.403c.12.03.234.075.351.113l-4.459 7.636zm-8-15.873c0-2.757 2.243-5 5-5h8c.551 0 1 .449 1 1v4.752c0 .72-.115 1.432-.343 2.115-.163.489-.387.955-.657 1.393v-.526c0-1.483-1.107-2.76-2.576-2.969l-2.313-.331c-1.203-.172-2.111-1.218-2.111-2.434h-2c0 .501.085.987.243 1.442-1.935.724-3.243 2.575-3.243 4.681v.137c-.27-.438-.494-.904-.657-1.393-.228-.683-.343-1.394-.343-2.115zm-27-5c4.411 0 8 3.589 8 8.001l.012 10.747c-.728-.521-1.544-.912-2.418-1.13l-1.769-.442-.328-1.31c1.513-1.091 2.503-2.863 2.503-4.866v-3.721l-1-.333c-1.485-.495-2.853-1.326-4-2.392v-2.554h-2v2.553c-1.147 1.066-2.514 1.897-4 2.392l-1 .335v3.72c0 2.003.99 3.775 2.503 4.866l-.328 1.31-1.768.442c-.87.217-1.682.605-2.407 1.122v-10.74c0-4.411 3.589-8 8-8zm0 24.941-1.078-1.941h2.156zm2.189-3.941h-4.379l-1.059-1.907 1.073-.268.516-2.063c.528.152 1.084.238 1.66.238s1.132-.086 1.659-.239l.516 2.063 1.073.268zm-2.189-14.637c1.178 1.013 2.541 1.815 4 2.352v2.285c0 2.206-1.794 4-4 4s-4-1.794-4-4v-2.286c1.458-.535 2.821-1.338 4-2.351zm-10 5.01v9.537c-.401.676-.692 1.409-.851 2.181-.729-1.548-1.149-3.27-1.149-5.091 0-2.402.703-4.681 2-6.627zm1 14.537v-1.368c0-1.373.535-2.663 1.505-3.633.623-.622 1.397-1.066 2.243-1.304l4.252 7.654v2.69c-3.181-.264-6.007-1.773-8-4.039zm10 4.039v-2.69l4.252-7.654c.845.238 1.62.682 2.243 1.305.97.97 1.505 2.26 1.505 3.632v1.368c-1.994 2.266-4.82 3.775-8 4.039zm9.851-6.858c-.157-.763-.443-1.488-.837-2.158l-.01-9.555c1.294 1.945 1.996 4.222 1.996 6.622 0 1.821-.42 3.543-1.149 5.091zm14.908-13.814c.461 1.036 1.115 1.984 1.938 2.768l.508.484c.36 1.363 1.185 2.535 2.298 3.338l-.328 1.31-1.768.442c-1.255.313-2.402.962-3.316 1.877-1.003 1.003-1.669 2.251-1.945 3.609-.742-1.576-1.146-3.304-1.146-5.105 0-3.353 1.356-6.463 3.759-8.723zm-.759 16.648v-1.383c0-1.373.535-2.663 1.505-3.633.092-.092.195-.172.294-.256l5.377 9.205c-2.427-.368-4.677-1.464-6.488-3.203-.244-.234-.468-.481-.688-.73zm10.828 3.927 5.373-9.199c.099.085.201.164.294.256.97.971 1.505 2.261 1.505 3.633v1.341c-1.827 2.077-4.349 3.528-7.172 3.969z"/><path d="m45 37c-2.206 0-4 1.794-4 4v8h-5.219l-.683-2.732c2.308-1.146 3.902-3.522 3.902-6.268v-6c0-1.654-1.346-3-3-3h-5c-3.309 0-6 2.691-6 6v3c0 2.746 1.594 5.122 3.902 6.268l-.683 2.732h-.219c-4.962 0-9 4.037-9 9v5h20v-6h5c2.757 0 5-2.243 5-5v-11c0-2.206-1.794-4-4-4zm0 2c1.103 0 2 .897 2 2v2h-4v-2c0-1.103.897-2 2-2zm-18 1v-3c0-2.206 1.794-4 4-4h5c.551 0 1 .448 1 1v6c0 2.757-2.243 5-5 5s-5-2.243-5-5zm3.808 6.891c.388.067.785.109 1.192.109s.804-.042 1.192-.109l.527 2.109h-3.438zm13.192 8.109h-7v6h-10v-6h-2v6h-4v-3c0-3.859 3.14-7 7-7h15v-6h4v7c0 1.654-1.346 3-3 3z"/><path d="m51 37v6h12v-6zm10 4h-8v-2h8z"/><path d="m51 51h12v-6h-12zm2-4h8v2h-8z"/><path d="m51 53h12v2h-12z"/><path d="m51 57h12v2h-12z"/><path d="m51 61h2v2h-2z"/><path d="m55 61h2v2h-2z"/><path d="m59 61h2v2h-2z"/></g></g></svg>