<svg id="Layer_5" enable-background="new 0 0 64 64" height="512" viewBox="0 0 64 64" width="512" xmlns="http://www.w3.org/2000/svg"><g><g><g><path d="m10 58h-8v-14.94c0-1.58.4-3.11 1.12-4.46s1.78-2.53 3.09-3.41c1.18-.78 2.52-1.29 3.92-1.49l3.03-.44.84 6.74 5-3 5 3 .84-6.74 3.03.44c1.4.2 2.74.71 3.92 1.49 2.63 1.76 4.21 4.71 4.21 7.87v6.94h-2-4-2-2-2c-1.1 0-2 .9-2 2v2c0 1.1.9 2 2 2-1.1 0-2 .9-2 2z" fill="#b4dd7f"/></g><g><path d="m19 37-5 3-.84-6.74 1.84-.26z" fill="#a0d468"/></g><g><path d="m24.84 33.26-.84 6.74-5-3 4-4z" fill="#a0d468"/></g><g><path d="m5 16c0-.68.19-1.31.48-1.87-.3-.65-.48-1.37-.48-2.13 0-2.46 1.78-4.49 4.11-4.91.42-1.77 2-3.09 3.89-3.09.63 0 1.21.16 1.74.41.88-1.44 2.45-2.41 4.26-2.41s3.38.97 4.26 2.41c.53-.25 1.11-.41 1.74-.41 1.89 0 3.47 1.32 3.89 3.09 2.33.42 4.11 2.45 4.11 4.91 0 .76-.18 1.48-.48 2.13.29.56.48 1.19.48 1.87 0 1.69-1.06 3.12-2.54 3.71.34-.48.54-1.07.54-1.71 0-1.66-1.34-3-3-3h-1c-1.3-.65-2.35-1.7-3-3h-10c-.65 1.3-1.7 2.35-3 3h-1c-1.66 0-3 1.34-3 3 0 .64.2 1.23.54 1.71-1.48-.59-2.54-2.02-2.54-3.71z" fill="#b27946"/></g><g><path d="m22.09 29.38.91 3.62-4 4-4-4 .91-3.62c.95.4 2 .62 3.09.62s2.14-.22 3.09-.62z" fill="#f0d0b4"/></g><g><path d="m28 15c1.66 0 3 1.34 3 3 0 .64-.2 1.23-.54 1.71l-.01.01c-.09.14-.21.28-.33.4-.54.54-1.29.88-2.12.88h-1v-3-3z" fill="#f0d0b4"/></g><g><path d="m10 21c-.83 0-1.58-.34-2.12-.88-.12-.12-.24-.26-.33-.4l-.01-.01c-.34-.48-.54-1.07-.54-1.71 0-1.66 1.34-3 3-3h1v3 3z" fill="#f0d0b4"/></g><g><path d="m24 12h-10c-.65 1.3-1.7 2.35-3 3v7c0 3.33 2.03 6.18 4.91 7.38.95.4 2 .62 3.09.62s2.14-.22 3.09-.62c.97-.4 1.84-.99 2.57-1.72 1.44-1.45 2.34-3.45 2.34-5.66v-7c-1.3-.65-2.35-1.7-3-3z" fill="#f0d0b4"/></g><g><path d="m21 18c0-1.66 1.34-3 3-3s3 1.34 3 3-1.34 3-3 3-3-1.34-3-3z" fill="#69d6f4"/></g><g><path d="m14 15c1.66 0 3 1.34 3 3s-1.34 3-3 3-3-1.34-3-3 1.34-3 3-3z" fill="#69d6f4"/></g><g><path d="m42 52v2c0 1.1-.9 2-2 2h-2-4-4-4-2c-1.1 0-2-.9-2-2v-2c0-1.1.9-2 2-2h2 2 2 4 2 2 2c1.1 0 2 .9 2 2z" fill="#ffc729"/></g><g><path d="m46 56h4 4 4 2c1.1 0 2 .9 2 2v2c0 1.1-.9 2-2 2h-16c-1.1 0-2-.9-2-2v-2c0-1.1.9-2 2-2z" fill="#ffc729"/></g><g><path d="m46 44h4 2 2 4 2c1.1 0 2 .9 2 2v2c0 1.1-.9 2-2 2h-2-4-4-4-2c-1.1 0-2-.9-2-2v-2c0-1.1.9-2 2-2z" fill="#ffc729"/></g><g><path d="m42 58v2c0 1.1-.9 2-2 2h-16c-1.1 0-2-.9-2-2v-2c0-1.1.9-2 2-2h2 4 4 4 2c1.1 0 2 .9 2 2z" fill="#fcd770"/></g><g><path d="m46 50h4 4 4 2c1.1 0 2 .9 2 2v2c0 1.1-.9 2-2 2h-2-4-4-4-2c-1.1 0-2-.9-2-2v-2c0-1.1.9-2 2-2z" fill="#fcd770"/></g><g><circle cx="52" cy="34" fill="#fcd770" r="10"/></g></g><g><path d="m60 43h-1.695c2.834-1.992 4.695-5.28 4.695-9 0-6.065-4.935-11-11-11s-11 4.935-11 11c0 3.72 1.861 7.008 4.695 9h-1.695c-1.654 0-3 1.346-3 3v2c0 .475.121.919.319 1.319-.4-.198-.844-.319-1.319-.319h-3v-5.936c0-3.507-1.742-6.761-4.66-8.706-1.292-.861-2.787-1.433-4.324-1.652l-4.209-.601-.545-2.181c2.818-1.522 4.738-4.502 4.738-7.924 1.244 0 2.343-.582 3.077-1.475 1.78-.815 2.923-2.554 2.923-4.525 0-.646-.13-1.281-.389-1.894.259-.678.389-1.385.389-2.106 0-2.691-1.785-5.018-4.325-5.752-.72-1.94-2.561-3.248-4.675-3.248-.464 0-.924.067-1.375.201-1.133-1.391-2.809-2.201-4.625-2.201s-3.492.81-4.625 2.201c-.451-.134-.911-.201-1.375-.201-2.114 0-3.955 1.308-4.675 3.248-2.54.734-4.325 3.061-4.325 5.752 0 .721.13 1.428.389 2.106-.259.613-.389 1.248-.389 1.894 0 1.971 1.143 3.71 2.923 4.525.734.893 1.833 1.475 3.077 1.475 0 3.422 1.92 6.402 4.738 7.924l-.545 2.181-4.209.601c-1.537.22-3.032.791-4.324 1.652-2.918 1.946-4.66 5.2-4.66 8.706v15.936h20v1c0 1.654 1.346 3 3 3h16c.771 0 1.468-.301 2-.78.532.48 1.229.78 2 .78h16c1.654 0 3-1.346 3-3v-2c0-.771-.301-1.468-.78-2 .48-.532.78-1.229.78-2v-2c0-.771-.301-1.468-.78-2 .48-.532.78-1.229.78-2v-2c0-1.654-1.346-3-3-3zm-17-9c0-4.963 4.038-9 9-9s9 4.037 9 9-4.038 9-9 9-9-4.037-9-9zm0 12c0-.552.449-1 1-1h1v2h2v-2h2v2h2v-2h2v2h2v-2h2v2h2v-2h1c.551 0 1 .448 1 1v2c0 .552-.449 1-1 1h-16c-.551 0-1-.448-1-1zm18 6v2c0 .552-.449 1-1 1h-16c-.551 0-1-.448-1-1v-2c0-.552.449-1 1-1h1v2h2v-2h2v2h2v-2h2v2h2v-2h2v2h2v-2h1c.551 0 1 .448 1 1zm-20 0v2c0 .552-.449 1-1 1h-16c-.551 0-1-.448-1-1v-2c0-.552.449-1 1-1h1v2h2v-2h2v2h2v-2h2v2h2v-2h2v2h2v-2h1c.551 0 1 .448 1 1zm-17.646-17.94.375.054-.53 4.239-2.585-1.551zm-3.212-17.06h-2.284c-.447-1.721-2-3-3.858-3-.058 0-.111.015-.168.017.276-.321.536-.655.756-1.017h8.823c.22.362.48.696.756 1.017-.056-.002-.109-.017-.167-.017-1.858 0-3.411 1.279-3.858 3zm-6.142-1c1.103 0 2 .897 2 2s-.897 2-2 2-2-.897-2-2 .897-2 2-2zm10 0c1.103 0 2 .897 2 2s-.897 2-2 2-2-.897-2-2 .897-2 2-2zm4 4v-4c1.103 0 2 .897 2 2s-.897 2-2 2zm-21.612-6.299c-.257-.545-.388-1.117-.388-1.701 0-1.933 1.384-3.584 3.29-3.926l.648-.116.149-.641c.418-1.791 2.423-2.876 4.215-2.004l.818.398.473-.778c.739-1.21 2.012-1.933 3.407-1.933s2.668.723 3.406 1.934l.473.778.818-.398c1.792-.872 3.797.213 4.215 2.004l.149.641.648.116c1.907.341 3.291 1.992 3.291 3.925 0 .584-.131 1.156-.388 1.701l-.215.455.236.443c.243.457.367.928.367 1.401 0 .331-.057.649-.158.95-.464-1.695-2.002-2.95-3.842-2.95h-.727c-1.016-.555-1.861-1.41-2.379-2.447l-.276-.553h-11.236l-.276.553c-.518 1.037-1.362 1.892-2.379 2.447h-.727c-1.84 0-3.378 1.255-3.842 2.95-.101-.301-.158-.619-.158-.95 0-.473.124-.944.367-1.4l.236-.443zm1.612 4.299c0-1.103.897-2 2-2v4c-1.103 0-2-.897-2-2zm4 4v-.556c.591.344 1.268.556 2 .556 1.858 0 3.411-1.279 3.858-3h2.284c.447 1.721 2 3 3.858 3 .732 0 1.409-.212 2-.556v.556c0 3.859-3.14 7-7 7s-7-3.141-7-7zm7 9c.827 0 1.625-.121 2.386-.331l.506 2.025-2.892 2.892-2.893-2.892.506-2.025c.762.21 1.56.331 2.387.331zm-1.613 5.802-2.585 1.551-.53-4.239.375-.054zm-14.387 6.262c0-2.836 1.409-5.469 3.768-7.042 1.046-.696 2.255-1.158 3.499-1.336l2.025-.289.906 7.25 5.802-3.481 5.802 3.481.906-7.25 2.025.289c1.243.178 2.453.64 3.498 1.336 2.36 1.574 3.769 4.207 3.769 7.042v5.936h-6v-4h-2v4h-3c-1.654 0-3 1.346-3 3v2c0 .771.301 1.468.78 2-.261.289-.463.626-.596 1h-10.184v-12h-2v12h-6zm37 17.936h-16c-.551 0-1-.448-1-1v-2c0-.552.449-1 1-1h1v2h2v-2h2v2h2v-2h2v2h2v-2h2v2h2v-2h1c.551 0 1 .448 1 1v2c0 .552-.449 1-1 1zm21-1c0 .552-.449 1-1 1h-16c-.551 0-1-.448-1-1v-2c0-.552.449-1 1-1h1v2h2v-2h2v2h2v-2h2v2h2v-2h2v2h2v-2h1c.551 0 1 .448 1 1z"/><path d="m53 27h-2v2c-1.654 0-3 1.346-3 3s1.346 3 3 3h2c.551 0 1 .448 1 1s-.449 1-1 1h-3v-1h-2v3h3v2h2v-2c1.654 0 3-1.346 3-3s-1.346-3-3-3h-2c-.551 0-1-.448-1-1s.449-1 1-1h3v1h2v-3h-3z"/><circle cx="14" cy="18" r="1"/><circle cx="24" cy="18" r="1"/><path d="m23 23h-2c0 1.103-.897 2-2 2s-2-.897-2-2h-2c0 2.206 1.794 4 4 4s4-1.794 4-4z"/><path d="m18 45h2v2h-2z"/><path d="m18 41h2v2h-2z"/></g></g></svg>