<svg id="Layer_1" enable-background="new 0 0 512 512" height="512" viewBox="0 0 512 512" width="512" xmlns="http://www.w3.org/2000/svg"><g><path d="m512 400.199v104.301c0 4.14-3.36 7.5-7.5 7.5h-497c-4.14 0-7.5-3.36-7.5-7.5v-104.301c0-4.14 3.36-7.5 7.5-7.5 13.39 0 20.34 6.72 25.92 12.13 4.75 4.59 8.17 7.91 15.49 7.91s10.75-3.32 15.49-7.91c5.59-5.41 12.54-12.13 25.93-12.13s20.34 6.72 25.92 12.13c4.75 4.59 8.17 7.91 15.49 7.91s10.75-3.32 15.5-7.91c5.58-5.41 12.53-12.13 25.92-12.13s20.34 6.72 25.92 12.13c4.75 4.59 8.18 7.91 15.5 7.91 7.31 0 10.74-3.32 15.48-7.91 5.59-5.41 12.54-12.13 25.93-12.13s20.34 6.72 25.92 12.13c4.74 4.59 8.17 7.91 15.49 7.91s10.75-3.32 15.5-7.91c5.58-5.41 12.53-12.13 25.92-12.13s20.34 6.72 25.92 12.13c4.75 4.59 8.18 7.91 15.5 7.91s10.75-3.32 15.49-7.91c5.59-5.41 12.54-12.13 25.92-12.13 13.39 0 20.35 6.72 25.93 12.13 4.75 4.59 8.18 7.91 15.5 7.91s10.75-3.32 15.49-7.91c1.07-1.04 2.19-2.13 3.4-3.2 5.09-4.54 11.71-8.93 22.53-8.93 4.14 0 7.5 3.36 7.5 7.5z" fill="#40d7ff"/><g fill="#2aa6f2"><path d="m126.085 443.816h-47.795c-4.142 0-7.5 3.358-7.5 7.5s3.358 7.5 7.5 7.5h47.795c4.142 0 7.5-3.358 7.5-7.5s-3.358-7.5-7.5-7.5z"/><path d="m174.085 443.816h-17.795c-4.142 0-7.5 3.358-7.5 7.5s3.358 7.5 7.5 7.5h17.795c4.142 0 7.5-3.358 7.5-7.5s-3.358-7.5-7.5-7.5z"/><path d="m428.88 443.816h-117.795c-4.142 0-7.5 3.358-7.5 7.5s3.358 7.5 7.5 7.5h117.795c4.142 0 7.5-3.358 7.5-7.5s-3.358-7.5-7.5-7.5z"/><path d="m280.88 443.816h-27.795c-4.142 0-7.5 3.358-7.5 7.5s3.358 7.5 7.5 7.5h27.795c4.142 0 7.5-3.358 7.5-7.5s-3.358-7.5-7.5-7.5z"/></g><g fill="#ff7680"><path d="m104.7 301.868v40.74c0 16.15-13.09 29.24-29.24 29.24h-58.73c-9.51 0-17.16-7.93-16.71-17.54.42-9 8.17-15.92 17.18-15.92h54.04v-32.3h-42c-16.15 0-29.24-13.09-29.24-29.24v-40.73c0-16.15 13.09-29.24 29.24-29.24h58.25c9.01 0 16.76 6.92 17.19 15.92.45 9.61-7.2 17.54-16.71 17.54h-54.51v32.29h42c16.15 0 29.24 13.09 29.24 29.24z"/><path d="m256.93 353.479-14.68-131.511c-.84-8.56-8.05-15.09-16.65-15.09h-64.25c-8.61 0-15.81 6.53-16.65 15.09l-14.68 131.511c-.91 9.19 5.82 17.38 15.01 18.29.56.05 1.11.08 1.66.08 8.5 0 15.78-6.45 16.63-15.09l5.85-50.67h48.6l5.86 50.67c.56 5.73 3.95 10.49 8.65 13.05 2.84 1.55 6.17 2.3 9.64 1.96 9.19-.91 15.91-9.1 15.01-18.29zm-84.46-80.851 4.04-32.29h33.92l4.05 32.29z"/><path d="m370.444 338.386h-54.505v-114.778c0-9.24-7.491-16.731-16.731-16.731s-16.731 7.491-16.731 16.731v131.509c0 9.24 7.491 16.731 16.731 16.731h71.236c9.24 0 16.731-7.491 16.731-16.731s-7.491-16.731-16.731-16.731z"/><path d="m387.17 355.119c0 9.24-7.49 16.73-16.73 16.73h-71.23c-9.24 0-16.73-7.49-16.73-16.73v-131.511c0-6.44 3.64-12.03 8.98-14.82 2.32-1.22 4.95-1.91 7.75-1.91 9.24 0 16.73 7.49 16.73 16.73v114.781h54.5c9.24 0 16.73 7.49 16.73 16.73z"/><path d="m443.29 306.089v32.3h51.98c9.24 0 16.73 7.49 16.73 16.73s-7.49 16.73-16.73 16.73h-68.71c-9.24 0-16.73-7.49-16.73-16.73v-131.511c0-9.24 7.49-16.73 16.73-16.73h68.71c9.24 0 16.73 7.49 16.73 16.73s-7.49 16.73-16.73 16.73h-51.98v32.29h51.98c9.24 0 16.73 7.49 16.73 16.73s-7.49 16.73-16.73 16.73h-51.98z"/></g><g><path d="m339.8 138.457c0 14.37-3.54 28.61-10.24 41.19-1.3 2.45-3.85 3.98-6.62 3.98h-142.03c-2.77 0-5.32-1.53-6.62-3.98-4.22-7.93-7.19-16.52-8.8-25.39-.95-5.2-1.44-10.49-1.44-15.8 0-45.02 34.02-82.231 77.7-87.281 3.33-.39 6.73-.59 10.17-.59 48.46.001 87.88 39.411 87.88 87.871z" fill="#ffff4d"/><g fill="#ffe150"><path d="m251.92 35.796c4.142 0 7.5-3.358 7.5-7.5v-20.796c0-4.142-3.358-7.5-7.5-7.5s-7.5 3.358-7.5 7.5v20.796c0 4.142 3.358 7.5 7.5 7.5z"/><path d="m140.548 130.953h-20.795c-4.142 0-7.5 3.358-7.5 7.5s3.358 7.5 7.5 7.5h20.795c4.142 0 7.5-3.358 7.5-7.5s-3.358-7.5-7.5-7.5z"/><path d="m382.344 130.953h-20.795c-4.142 0-7.5 3.358-7.5 7.5s3.358 7.5 7.5 7.5h20.795c4.142 0 7.5-3.358 7.5-7.5s-3.358-7.5-7.5-7.5z"/><path d="m190.178 46.506c1.389 2.406 3.91 3.751 6.502 3.751 1.272 0 2.562-.324 3.743-1.006 3.587-2.071 4.816-6.658 2.745-10.245l-10.397-18.009c-2.071-3.587-6.658-4.817-10.245-2.745-3.587 2.071-4.816 6.658-2.745 10.245z"/><path d="m303.419 49.251c1.181.682 2.471 1.006 3.743 1.006 2.592 0 5.113-1.345 6.502-3.751l10.398-18.009c2.071-3.587.842-8.174-2.745-10.245-3.588-2.072-8.174-.843-10.245 2.745l-10.398 18.009c-2.071 3.587-.842 8.174 2.745 10.245z"/><path d="m372.12 69.055c-2.071-3.587-6.658-4.816-10.245-2.745l-18.009 10.398c-3.587 2.071-4.816 6.658-2.745 10.245 1.389 2.406 3.91 3.751 6.502 3.751 1.272 0 2.562-.324 3.743-1.006l18.009-10.398c3.587-2.07 4.816-6.657 2.745-10.245z"/><path d="m159.974 76.708-18.01-10.398c-3.588-2.072-8.174-.842-10.245 2.745s-.842 8.174 2.745 10.245l18.009 10.398c1.181.682 2.471 1.006 3.743 1.006 2.592 0 5.113-1.346 6.502-3.751 2.072-3.588.843-8.175-2.744-10.245z"/></g></g><path d="m339.8 138.457c0 14.37-3.54 28.61-10.24 41.19-1.3 2.45-3.85 3.98-6.62 3.98h-142.03c-2.77 0-5.32-1.53-6.62-3.98-4.22-7.93-7.19-16.52-8.8-25.39h123.37c52.74 0 7.55-103.001-47.11-103.081 3.33-.39 6.73-.59 10.17-.59 48.46.001 87.88 39.411 87.88 87.871z" fill="#ffe150"/><path d="m512 400.199v104.301c0 4.14-3.36 7.5-7.5 7.5h-497c-4.14 0-7.5-3.36-7.5-7.5v-16.02h467.92c7.76 0 14.05-6.28 14.05-14.04v-72.811c5.09-4.54 11.71-8.93 22.53-8.93 4.14 0 7.5 3.36 7.5 7.5z" fill="#2aa6f2"/><g fill="#f44d90"><path d="m512 223.608c0 9.24-7.49 16.73-16.73 16.73h-20c9.24 0 16.73-7.49 16.73-16.73s-7.49-16.73-16.73-16.73h20c9.24 0 16.73 7.49 16.73 16.73z"/><path d="m512 289.358c0 9.24-7.49 16.73-16.73 16.73h-20c9.24 0 16.73-7.49 16.73-16.73s-7.49-16.73-16.73-16.73h20c9.24 0 16.73 7.49 16.73 16.73z"/><path d="m512 355.119c0 9.24-7.49 16.73-16.73 16.73h-20c9.24 0 16.73-7.49 16.73-16.73s-7.49-16.73-16.73-16.73h20c9.24 0 16.73 7.49 16.73 16.73z"/><path d="m387.175 355.117c0 9.24-7.49 16.73-16.73 16.73h-20c9.24 0 16.73-7.49 16.73-16.73s-7.49-16.73-16.73-16.73h20c9.24 0 16.73 7.49 16.73 16.73z"/><path d="m104.679 223.607c0 9.24-7.49 16.73-16.73 16.73h-20c9.24 0 16.73-7.49 16.73-16.73s-7.49-16.73-16.73-16.73h20c9.24 0 16.73 7.49 16.73 16.73z"/><path d="m241.92 371.769c-3.47.34-6.8-.41-9.64-1.96 5.72-3.12 9.32-9.44 8.65-16.33l-14.68-131.511c-.84-8.56-8.05-15.09-16.65-15.09h16c8.6 0 15.81 6.53 16.65 15.09l14.68 131.511c.9 9.19-5.82 17.38-15.01 18.29z"/><path d="m104.7 301.868v40.74c0 16.15-13.09 29.24-29.24 29.24h-16c16.15 0 29.24-13.09 29.24-29.24v-40.74c0-16.15-13.09-29.24-29.24-29.24h16c16.15 0 29.24 13.09 29.24 29.24z"/><path d="m315.94 223.608v114.781h-15.5v-114.781c0-6.44-3.64-12.03-8.98-14.82 2.32-1.22 4.95-1.91 7.75-1.91 9.24 0 16.73 7.49 16.73 16.73z"/></g></g></svg>