<svg height="512pt" viewBox="0 0 511 512" width="512pt" xmlns="http://www.w3.org/2000/svg"><path d="m397.410156 374.941406v-144.34375l-28.332031-28.332031h-225.195313c-11.0625 11.066406-17.265624 17.269531-28.332031 28.332031v144.34375zm0 0" fill="#7c84e8"/><path d="m290.9375 236.042969h2.425781v-33.777344h-33.773437v33.777344h2.429687l-13.535156 114.4375 19.148437 24.460937h17.691407l19.148437-24.460937zm0 0" fill="#515be0"/><path d="m239.589844 202.265625h33.777344v33.777344h-33.777344zm0 0" fill="#ffb655"/><path d="m247.632812 374.941406h17.691407l19.148437-24.460937-13.535156-114.4375h-28.917969l-13.535156 114.4375zm0 0" fill="#ffb655"/><path d="m335.230469 86.492188v66.15625c-19.371094 19.371093-30.234375 30.230468-49.601563 49.605468h-58.777344c-19.371093-19.375-30.230468-30.234375-49.601562-49.605468v-66.15625c0-43.625 35.363281-78.992188 78.988281-78.992188s78.992188 35.363281 78.992188 78.992188zm0 0" fill="#ffdaaa"/><path d="m56.226562 374.941406h400.511719v84.375h-400.511719zm0 0" fill="#ffe477"/><path d="m56.226562 459.316406v-45.179687h-45.183593l15.6875 45.179687-15.6875 45.183594h90.363281v-45.183594zm0 0" fill="#ffb655"/><path d="m456.734375 459.316406v-45.179687h45.183594l-15.6875 45.179687 15.6875 45.183594h-90.363281v-45.183594zm0 0" fill="#ffb655"/><path d="m173.882812 202.265625h-30c-11.0625 11.066406-17.265624 17.269531-28.332031 28.332031v144.34375h30v-144.34375c11.066407-11.0625 17.269531-17.265625 28.332031-28.332031zm0 0" fill="#515be0"/><path d="m239.589844 202.265625h20v33.773437h-20zm0 0" fill="#ff7956"/><path d="m248.484375 350.480469 13.535156-114.4375h-20l-13.535156 114.4375 19.148437 24.460937h17.691407l1.152343-1.472656zm0 0" fill="#ff7956"/><path d="m207.25 86.492188c0-38.5 27.539062-70.5625 63.988281-77.570313-4.855469-.933594-9.871093-1.421875-15-1.421875-43.625 0-78.988281 35.367188-78.988281 78.992188v66.15625l49.601562 49.605468h30l-49.601562-49.605468zm0 0" fill="#ffbb85"/><path d="m56.226562 374.941406h30v84.375h-30zm0 0" fill="#ffb655"/><g fill="#ff7956"><path d="m56.226562 459.316406v-1.453125l-15.183593-43.726562h-30l15.6875 45.179687-15.6875 45.183594h30l15.6875-45.183594zm0 0"/><path d="m411.554688 459.316406h30v45.183594h-30zm0 0"/><path d="m486.734375 457.863281v-43.726562h-30v45.179687h29.496094zm0 0"/></g><path d="m464.234375 367.441406h-114.390625v-75.808594h-15v75.808594h-54.121094l11.5625-14.769531-12.90625-109.132813h1.488282v-33.773437h85.105468l23.9375 23.9375v121.238281h15v-127.449218l-32.722656-32.726563h-68.46875l39.011719-39.011719v-69.261718c0-47.691407-38.800781-86.492188-86.492188-86.492188-47.6875 0-86.488281 38.800781-86.488281 86.492188v69.261718l39.011719 39.011719h-67.984375l-32.722656 32.726563v127.449218h15v-121.238281l23.9375-23.9375h85.101562v33.773437h1.488281l-12.90625 109.132813 11.5625 14.769531h-54.117187v-75.808594h-15v75.808594h-114.394532v99.375h415.511719v-99.375zm-279.484375-280.949218c0-39.421876 32.070312-71.492188 71.488281-71.492188 39.421875 0 71.492188 32.070312 71.492188 71.492188v63.046874l-45.210938 45.214844h-52.558593l-45.210938-45.214844zm81.113281 123.273437v18.777344h-18.773437v-18.777344zm-29.570312 138.527344 12.390625-104.75h15.589844l12.386718 104.75-14.988281 19.148437h-10.386719zm212.941406 103.523437h-385.507813v-69.375h385.511719v69.375zm0 0"/><path d="m132.457031 402.980469-15.394531 4.132812v-14.9375h-15v14.9375l-15.394531-4.132812-3.886719 14.488281 14.640625 3.929688-8.722656 12.8125 12.398437 8.4375 8.464844-12.429688 8.464844 12.429688 12.402344-8.4375-8.726563-12.8125 14.644531-3.929688zm0 0"/><path d="m205.914062 402.980469-15.390624 4.132812v-14.9375h-15v14.9375l-15.394532-4.132812-3.890625 14.488281 14.644531 3.929688-8.726562 12.8125 12.402344 8.4375 8.464844-12.429688 8.464843 12.429688 12.398438-8.4375-8.722657-12.8125 14.640626-3.929688zm0 0"/><path d="m263.980469 392.175781h-15v14.9375l-15.394531-4.132812-3.886719 14.488281 14.640625 3.929688-8.722656 12.8125 12.398437 8.4375 8.464844-12.429688 8.464843 12.429688 12.402344-8.4375-8.726562-12.8125 14.644531-3.929688-3.890625-14.488281-15.394531 4.132812zm0 0"/><path d="m309.074219 434.210938 12.402343 8.4375 8.464844-12.429688 8.464844 12.429688 12.398438-8.4375-8.722657-12.8125 14.640625-3.929688-3.886718-14.488281-15.394532 4.132812v-14.9375h-15v14.9375l-15.394531-4.132812-3.890625 14.488281 14.644531 3.929688zm0 0"/><path d="m382.535156 434.210938 12.398438 8.4375 8.464844-12.429688 8.464843 12.429688 12.402344-8.4375-8.726563-12.8125 14.644532-3.929688-3.890625-14.488281-15.394531 4.132812v-14.9375h-15v14.9375l-15.394532-4.132812-3.886718 14.488281 14.640624 3.929688zm0 0"/><path d="m93.90625 497h-72.320312l13.085937-37.683594-13.085937-37.679687h14.640624v-15h-35.726562l18.292969 52.679687-18.292969 52.683594h108.40625v-32.683594h-15zm0 0"/><path d="m512.460938 406.636719h-35.726563v15h14.640625l-13.082031 37.679687 13.082031 37.683594h-72.320312v-17.683594h-15v32.683594h108.40625l-18.289063-52.683594zm0 0"/><path d="m317.730469 128.003906h-15v-41.511718c0-10.15625-3.230469-19.8125-9.34375-27.921876l11.976562-9.03125c8.089844 10.734376 12.367188 23.511719 12.367188 36.953126zm-30.136719-75.804687c-3.191406-2.921875-6.757812-5.378907-10.605469-7.308594l6.71875-13.410156c5.085938 2.550781 9.804688 5.796875 14.015625 9.652343zm-18.609375-10.425781c-4.125-1.175782-8.414063-1.773438-12.746094-1.773438v-15c5.726563 0 11.398438.789062 16.863281 2.351562zm0 0" fill="#fff"/><path d="m379.910156 348.191406h-15v-57.238281h15zm0-67.238281h-15v-15h15zm0-25h-15v-15h15zm0 0" fill="#fff"/></svg>