<svg id="Layer_5" enable-background="new 0 0 64 64" height="512" viewBox="0 0 64 64" width="512" xmlns="http://www.w3.org/2000/svg"><g><g><g><path d="m22.94 52.56c.66.72 1.06 1.67 1.06 2.71v6.73h-22v-6.73c0-1.04.4-1.99 1.06-2.71.56-.61 1.3-1.04 2.15-1.21l2.98-.6.81 7.25 4-4 4 4 .81-7.25 2.98.6c.85.17 1.59.6 2.15 1.21z" fill="#fcd770"/></g><g><path d="m17.81 50.75-.81 7.25-4-4 3.13-3.92c.3.24.66.43 1.05.54z" fill="#ffc729"/></g><g><path d="m9.87 50.08 3.13 3.92-4 4-.81-7.25.63-.13c.39-.11.75-.3 1.05-.54z" fill="#ffc729"/></g><g><path d="m43 24.27v4.73h-11-11v-4.73c0-1.9 1.34-3.54 3.21-3.92l3.61-.73c.39-.11.75-.3 1.05-.54l3.13 3.92 3.13-3.92c.3.24.66.43 1.05.54l3.61.73c1.87.38 3.21 2.02 3.21 3.92z" fill="#4fc1e9"/></g><g><path d="m27 11c-.57 0-1.09.24-1.45.63-.92-.51-1.55-1.5-1.55-2.63 0-1.31.85-2.41 2.02-2.82-.01-.06-.02-.12-.02-.18 0-1.66 1.34-3 3-3 .24 0 .48.04.7.09.55-.66 1.37-1.09 2.3-1.09s1.75.43 2.3 1.09c.22-.05.46-.09.7-.09 1.66 0 3 1.34 3 3 0 .06-.01.12-.02.18 1.17.41 2.02 1.51 2.02 2.82 0 1.13-.63 2.12-1.55 2.63-.01-.01-.03-.03-.04-.04-.36-.37-.86-.59-1.41-.59h-1-1.76c-1.47 0-2.92-.34-4.24-1-.74 0-1.38.4-1.73 1z" fill="#b27946"/></g><g><path d="m10.92 48.42c-.15.66-.52 1.24-1.05 1.66-.3.24-.66.43-1.05.54l-.63.13-2.98.6c-.85.17-1.59.6-2.15 1.21-.04-.18-.06-.37-.06-.56 0-.83.34-1.58.88-2.12 1.27-1.27 2.12-2.9 2.12-4.69v-1.19c0 .55.22 1.05.59 1.41.36.37.86.59 1.41.59h1.13c.18.7.55 1.33 1.04 1.83.23.22.48.42.75.58z" fill="#656d78"/></g><g><path d="m20 42v2c0-1.1-.9-2-2-2h-1c0-.55-.45-1-1-1h-6c-.55 0-1 .45-1 1h-1c-1.1 0-2 .9-2 2v-2c0-1.94.78-3.68 2.05-4.95s3.01-2.05 4.95-2.05c3.87 0 7 3.13 7 7z" fill="#656d78"/></g><g><path d="m22.12 49.88c.54.54.88 1.29.88 2.12 0 .19-.02.38-.06.56-.56-.61-1.3-1.04-2.15-1.21l-2.98-.6-.63-.13c-.39-.11-.75-.3-1.05-.54-.53-.42-.9-1-1.05-1.66v-.01c.88-.53 1.53-1.39 1.79-2.41h1.13c.55 0 1.05-.22 1.41-.59.37-.36.59-.86.59-1.41v1.19c0 1.79.85 3.42 2.12 4.69z" fill="#656d78"/></g><g><path d="m58 47c0 1.46-.45 2.81-1.22 3.94l-1.6-.32c-.2-.06-.38-.13-.56-.23-.78-.39-1.34-1.12-1.54-1.97v-.01c.88-.53 1.53-1.39 1.79-2.41h1.13c.55 0 1.05-.22 1.41-.59.37-.36.59-.86.59-1.41z" fill="#656d78"/></g><g><path d="m58 41v3c0-1.1-.9-2-2-2h-1v-1c-1.32 0-2.61-.31-3.79-.89l-.21-.11-.21.11c-1.18.58-2.47.89-3.79.89v1h-1c-1.1 0-2 .9-2 2v-3c0-3.87 3.13-7 7-7s7 3.13 7 7z" fill="#656d78"/></g><g><path d="m48.17 47.83c.23.22.48.42.75.58v.01c-.2.85-.76 1.58-1.54 1.98-.18.09-.36.16-.56.22l-1.6.32c-.77-1.13-1.22-2.48-1.22-3.94v-3c0 .55.22 1.05.59 1.41.36.37.86.59 1.41.59h1.13c.18.7.55 1.33 1.04 1.83z" fill="#656d78"/></g><g><path d="m26 41v-6h6 6v6 6h-12z" fill="#e6e9ed"/></g><g><path d="m47.38 50.4 1.04 4.6 1.58 7h-10v-6.73c0-1.9 1.34-3.54 3.21-3.92l2.01-.41 1.6-.32c.2-.06.38-.13.56-.22z" fill="#b4dd7f"/></g><g><path d="m56.78 50.94 2.01.41c1.87.38 3.21 2.02 3.21 3.92v6.73h-10l1.58-7 1.04-4.61c.18.1.36.17.56.23z" fill="#b4dd7f"/></g><g><path d="m53.58 55-1.58 7h-2l-1.58-7z" fill="#ffeaa7"/></g><g><path d="m53.08 48.42c.2.85.76 1.58 1.54 1.97l-1.04 4.61h-5.16l-1.04-4.6c.78-.4 1.34-1.13 1.54-1.98v-.01c.61.38 1.32.59 2.08.59s1.47-.21 2.08-.59z" fill="#f0d0b4"/></g><g><path d="m58 44c0 .55-.22 1.05-.59 1.41-.36.37-.86.59-1.41.59h-1.13c.09-.32.13-.65.13-1v-3h1c1.1 0 2 .9 2 2z" fill="#f0d0b4"/></g><g><path d="m55 42v3c0 .35-.04.68-.13 1-.26 1.02-.91 1.88-1.79 2.41-.61.38-1.32.59-2.08.59s-1.47-.21-2.08-.59c-.27-.16-.52-.36-.75-.58-.49-.5-.86-1.13-1.04-1.83-.09-.32-.13-.65-.13-1v-3-1c1.32 0 2.61-.31 3.79-.89l.21-.11.21.11c1.18.58 2.47.89 3.79.89z" fill="#f0d0b4"/></g><g><path d="m47 42v3c0 .35.04.68.13 1h-1.13c-.55 0-1.05-.22-1.41-.59-.37-.36-.59-.86-.59-1.41 0-1.1.9-2 2-2z" fill="#f0d0b4"/></g><g><path d="m20 44c0 .55-.22 1.05-.59 1.41-.36.37-.86.59-1.41.59h-1.13c.09-.32.13-.65.13-1v-3h1c1.1 0 2 .9 2 2z" fill="#f0d0b4"/></g><g><path d="m15.08 48.42c.15.66.52 1.24 1.05 1.66l-3.13 3.92-3.13-3.92c.53-.42.9-1 1.05-1.66v-.01c1.92.59 2 .59 2.08.59.76 0 1.48-.21 2.08-.59z" fill="#f0d0b4"/></g><g><path d="m17 42v3c0 .35-.04.68-.13 1-.26 1.02-.91 1.88-1.79 2.41-.6.38-1.32.59-2.08.59-.08 0-.16 0-2.08-.59-.27-.16-.52-.36-.75-.58-.49-.5-.86-1.13-1.04-1.83-.09-.32-.13-.65-.13-1v-3c0-.55.45-1 1-1h6c.55 0 1 .45 1 1z" fill="#f0d0b4"/></g><g><path d="m9 42v3c0 .35.04.68.13 1h-1.13c-.55 0-1.05-.22-1.41-.59-.37-.36-.59-.86-.59-1.41 0-1.1.9-2 2-2z" fill="#f0d0b4"/></g><g><path d="m34.08 17.42c.15.66.52 1.24 1.05 1.66l-3.13 3.92-3.13-3.92c.53-.42.9-1 1.05-1.66v-.01c1.92.59 2 .59 2.08.59.76 0 1.48-.21 2.08-.59z" fill="#f0d0b4"/></g><g><path d="m36 11v3c0 .35-.04.68-.13 1-.26 1.02-.91 1.88-1.79 2.41-.6.38-1.32.59-2.08.59-.08 0-.16 0-2.08-.59-.27-.16-.52-.36-.75-.58-.5-.5-.86-1.12-1.04-1.83-.09-.32-.13-.65-.13-1v-2c0-.36.1-.71.27-1 .35-.6.99-1 1.73-1 1.32.66 2.77 1 4.24 1z" fill="#f0d0b4"/></g><g><path d="m39 13c0 1.1-.9 2-2 2h-1.13c.09-.32.13-.65.13-1v-3h1c.55 0 1.05.22 1.41.59.01.01.03.03.04.04.35.36.55.84.55 1.37z" fill="#f0d0b4"/></g><g><path d="m28 14c0 .35.04.68.13 1h-1.13c-.55 0-1.05-.22-1.41-.59-.37-.36-.59-.86-.59-1.41 0-.53.21-1.01.55-1.37.36-.39.88-.63 1.45-.63h1.27c-.17.29-.27.64-.27 1z" fill="#f0d0b4"/></g><g><path d="m20 9-6 3v-3-3z" fill="#ff826e"/></g><g><path d="m59 24-3 6-3-6h3z" fill="#ff826e"/></g></g><g><path d="m58.99 50.372-.688-.138c.45-1.014.698-2.107.698-3.234v-6c0-4.411-3.589-8-8-8-4.072 0-7.436 3.06-7.931 7h-4.069v-6h-6v-4h11v-5.727c0-2.371-1.687-4.432-4.01-4.901l-3.54-.712c-.502-.143-.914-.479-1.17-.917.548-.481.999-1.067 1.296-1.743h.424c1.654 0 3-1.346 3-3 0-.398-.081-.776-.223-1.123.77-.744 1.223-1.778 1.223-2.877 0-1.448-.791-2.765-2.027-3.466-.245-2.099-2.09-3.743-4.326-3.516-1.458-1.306-3.836-1.306-5.294 0-2.232-.231-4.082 1.417-4.326 3.516-1.236.701-2.027 2.018-2.027 3.466 0 1.099.453 2.133 1.223 2.877-.141.347-.223.725-.223 1.123 0 1.654 1.346 3 3 3h.424c.297.677.749 1.263 1.297 1.744-.252.436-.649.768-1.095.897l-3.616.73c-2.324.469-4.01 2.53-4.01 4.901v5.728h11v4h-6v6h-4.263c-.892-3.445-4.017-6-7.737-6-4.411 0-8 3.589-8 8v3.186c0 1.783-.994 3.152-1.828 3.986-.755.755-1.172 1.759-1.172 2.828 0 .087.021.177.027.265-.641.847-1.027 1.889-1.027 3.008v7.727h24v-7.727c0-1.119-.386-2.161-1.027-3.008.006-.088.027-.178.027-.265 0-1.069-.417-2.073-1.172-2.828-.834-.835-1.828-2.203-1.828-3.986v-3.186h4v6h14v-6h4v5c0 1.126.248 2.219.698 3.233l-.688.139c-2.324.469-4.01 2.53-4.01 4.901v7.727h24v-7.727c0-2.371-1.687-4.432-4.01-4.901zm-29.99-36.372v-2c0-.486.349-.893.809-.982 1.38.643 2.905.982 4.427.982h.764v2c0 1.654-1.346 3-3 3s-3-1.346-3-3zm8 0v-2c.551 0 1 .449 1 1s-.449 1-1 1zm-11-1c0-.551.449-1 1-1v2c-.551 0-1-.449-1-1zm1.78-3h-.78c-.523 0-1.007.146-1.435.382-.354-.368-.565-.858-.565-1.382 0-.842.542-1.597 1.347-1.877l.718-.25-.049-.759-.016-.114c0-1.103.897-2 2-2 .139 0 .288.021.468.064l.605.146.398-.479c.772-.93 2.283-.93 3.056 0l.398.479.605-.146c.182-.043.331-.064.47-.064 1.103 0 2 .897 2 1.965l-.065.907.718.25c.805.281 1.347 1.036 1.347 1.878 0 .524-.211 1.014-.565 1.382-.428-.236-.912-.382-1.435-.382h-1-1.764c-1.308 0-2.618-.309-3.789-.895l-.211-.105h-.236c-.883 0-1.67.391-2.22 1zm4.22 9c.541 0 1.052-.108 1.541-.268.082.141.17.277.269.406l-1.81 2.261-1.807-2.259c.098-.13.186-.267.268-.408.488.16.999.268 1.539.268zm-10 5.273c0-1.422 1.012-2.659 2.406-2.941l3.692-.749c.183-.052.36-.119.531-.195l3.371 4.213 3.378-4.222c.192.087.391.164.6.223l3.617.73c1.393.282 2.405 1.519 2.405 2.941v3.727h-20zm-4 18.727c.551 0 1 .449 1 1s-.449 1-1 1zm-5-7c3.024 0 5.526 2.251 5.935 5.164-.296-.098-.607-.164-.935-.164h-.278c-.347-.595-.985-1-1.722-1h-6c-.737 0-1.375.405-1.722 1h-.278c-.328 0-.639.066-.935.164.409-2.913 2.911-5.164 5.935-5.164zm3.378 15.378c.109.049.223.09.337.13l-.479 4.313-1.896-1.896zm-1.569-1.24-1.809 2.261-1.807-2.259c.098-.13.186-.267.268-.408.488.16.999.268 1.539.268.541 0 1.052-.108 1.541-.268.081.141.17.277.268.406zm1.191-5.138c0 1.654-1.346 3-3 3s-3-1.346-3-3v-3l6-.001zm-6.37 6.388 2.03 2.538-1.896 1.896-.478-4.306c.116-.04.233-.078.344-.128zm-1.63-6.388c-.551 0-1-.449-1-1s.449-1 1-1zm-1.193 1.749c.366.16.769.251 1.193.251h.424c.297.677.749 1.263 1.297 1.744-.252.436-.649.768-1.095.897l-3.616.73c-.108.022-.208.064-.313.092 1.069-1.105 1.79-2.383 2.11-3.714zm16.193 14.251h-20v-5.727c0-1.422 1.012-2.659 2.406-2.941l1.915-.388.915 8.235 4.764-4.765 4.764 4.764.915-8.233 1.916.387c1.393.282 2.405 1.519 2.405 2.941zm-1.697-10.535c-.105-.029-.205-.071-.313-.092l-3.54-.712c-.502-.143-.914-.479-1.17-.917.548-.481.999-1.067 1.296-1.743h.424c.424 0 .827-.091 1.193-.251.32 1.33 1.041 2.608 2.11 3.715zm15.697-4.465h-10v-10h10zm18.45 3.66c-.502-.143-.914-.479-1.17-.917.548-.481.999-1.067 1.296-1.743h.424c.352 0 .686-.072 1-.184v.184c0 .997-.257 1.959-.723 2.826zm-1.45-4.66c0 1.654-1.346 3-3 3s-3-1.346-3-3v-3.054c1.037-.111 2.055-.393 3-.833.945.439 1.963.722 3 .833zm-1.22 9h-3.561l-.711-3.148c.384-.309.704-.691.952-1.12.489.16 1 .268 1.54.268.541 0 1.052-.108 1.541-.268.246.423.566.8.953 1.11zm-.451 2-1.129 5h-.4l-1.129-5zm3.671-13c.551 0 1 .449 1 1s-.449 1-1 1zm-5-8c3.309 0 6 2.691 6 6v.184c-.314-.112-.648-.184-1-.184v-1h-1c-1.154 0-2.31-.273-3.342-.789l-.658-.329-.658.329c-1.032.516-2.188.789-3.342.789h-1v1c-.352 0-.686.072-1 .184v-.184c0-3.309 2.691-6 6-6zm-5 10c-.551 0-1-.449-1-1s.449-1 1-1zm-1 2v-.184c.314.112.648.184 1 .184h.424c.297.677.749 1.263 1.297 1.744-.252.436-.649.768-1.095.897l-.904.183c-.466-.867-.722-1.828-.722-2.824zm-4 8.273c0-1.422 1.012-2.659 2.406-2.941l3.238-.657 2.105 9.325h-7.749zm20 5.727h-7.749l2.104-9.322 3.239.654c1.394.282 2.406 1.519 2.406 2.941z"/><path d="m36.707 38.707-1.414-1.414-4.293 4.293-1.293-1.293-1.414 1.414 2.707 2.707z"/><path d="m9 13c0-1.654 1.346-3 3-3h1v3.618l9.236-4.618-9.236-4.618v3.618h-1c-2.757 0-5 2.243-5 5v19h2zm6-5.382 2.764 1.382-2.764 1.382z"/><path d="m55 13v10h-3.618l4.618 9.236 4.618-9.236h-3.618v-10c0-2.757-2.243-5-5-5h-9v2h9c1.654 0 3 1.346 3 3zm1 14.764-1.382-2.764h2.764z"/></g></g></svg>